<svg width="1523" height="40" viewBox="0 0 1523 40" fill="none" xmlns="http://www.w3.org/2000/svg">
<path d="M33.2615 10.3217C33.3596 10.2731 33.4663 10.2444 33.5755 10.2371C33.6847 10.2298 33.7943 10.2441 33.898 10.2791C34.0017 10.3142 34.0975 10.3693 34.1799 10.4414C34.2623 10.5135 34.3296 10.6011 34.3782 10.6992L35.0373 12.0359L36.3815 10.5942C36.5321 10.4326 36.7408 10.3374 36.9616 10.3296C37.1824 10.3218 37.3973 10.402 37.559 10.5525C37.8948 10.8675 37.9132 11.395 37.5998 11.7317L35.8265 13.6342L36.4957 14.9892L37.6048 13.9784C37.6858 13.9047 37.7805 13.8477 37.8835 13.8106C37.9865 13.7736 38.0958 13.7571 38.2051 13.7623C38.3145 13.7675 38.4217 13.7942 38.5208 13.8408C38.6198 13.8875 38.7087 13.9532 38.7823 14.0342C38.8562 14.1152 38.9135 14.21 38.9507 14.3132C38.9879 14.4163 39.0044 14.5258 38.9992 14.6354C38.994 14.7449 38.9672 14.8524 38.9205 14.9516C38.8737 15.0507 38.8077 15.1397 38.7265 15.2134L37.264 16.545L38.144 18.3275C38.2421 18.5257 38.2575 18.7547 38.1868 18.9642C38.1161 19.1737 37.965 19.3465 37.7669 19.4446C37.5688 19.5428 37.3398 19.5582 37.1303 19.4874C36.9208 19.4167 36.7479 19.2657 36.6498 19.0675L35.7373 17.2184L34.1007 17.55C33.8837 17.5939 33.6583 17.5498 33.4738 17.4274C33.2894 17.3051 33.1612 17.1145 33.1173 16.8975C33.0734 16.6806 33.1175 16.4551 33.2399 16.2707C33.3623 16.0863 33.5529 15.9581 33.7698 15.9142L34.9732 15.6709L34.3107 14.3292L31.7773 14.7109C31.5585 14.7437 31.3356 14.6882 31.1577 14.5567C30.9798 14.4252 30.8614 14.2284 30.8286 14.0096C30.7957 13.7908 30.8512 13.5679 30.9827 13.39C31.1142 13.2121 31.311 13.0937 31.5298 13.0609L33.5348 12.7584L32.884 11.4392C32.8353 11.3411 32.8064 11.2343 32.7991 11.125C32.7917 11.0157 32.8059 10.906 32.841 10.8022C32.8761 10.6984 32.9313 10.6025 33.0034 10.5201C33.0756 10.4376 33.1633 10.3702 33.2615 10.3217ZM52.0948 17.7075C52.2037 17.6962 52.3138 17.7065 52.4187 17.7377C52.5236 17.769 52.6214 17.8206 52.7063 17.8896C52.7913 17.9586 52.8618 18.0437 52.9139 18.14C52.966 18.2364 52.9986 18.342 53.0098 18.4509C53.1765 20.04 52.4765 21.5425 51.154 22.4375C50.9705 22.5513 50.7501 22.5895 50.5391 22.5442C50.328 22.499 50.1427 22.3738 50.0219 22.1948C49.9012 22.0159 49.8544 21.7971 49.8915 21.5845C49.9286 21.3718 50.0465 21.1818 50.2207 21.0542C50.6149 20.7928 50.9292 20.4275 51.1289 19.9987C51.3286 19.5699 51.4059 19.0942 51.3523 18.6242C51.3408 18.5152 51.3508 18.4051 51.3819 18.3C51.413 18.1949 51.4645 18.097 51.5335 18.0119C51.6024 17.9267 51.6875 17.856 51.7838 17.8038C51.8802 17.7516 51.9858 17.7189 52.0948 17.7075Z" fill="#C54E2C"/>
<path fill-rule="evenodd" clip-rule="evenodd" d="M29.9242 34.9992C32.3942 34.8742 33.9367 34.1875 34.895 33.1725C35.23 33.6508 35.8117 33.9308 36.4425 33.8325C39.7542 33.3158 47.1342 31.9558 55.4283 29.0875C55.74 28.9889 56.0121 28.7936 56.2053 28.5299C56.3985 28.2661 56.5026 27.9477 56.5026 27.6208C56.5026 27.294 56.3985 26.9756 56.2053 26.7118C56.0121 26.4481 55.74 26.2528 55.4283 26.1542C54.4878 25.8297 53.5608 25.5239 52.6475 25.2367C54.3017 24.3642 55.5708 22.9 56.0675 21.0417C57.1883 16.8542 54.2467 13.2108 50.4292 14.37C50.16 12.4483 50.7833 10.6783 52.4192 9.73251L51.5858 8.28751C49.5625 9.45668 48.7125 11.4575 48.705 13.5067C47.2708 12.4092 45.5325 12.3675 44.055 13.14C44.0487 12.8926 44.0135 12.6467 43.95 12.4075C43.6958 11.4567 43.0167 10.7775 42.0833 10.3867C41.8917 9.50668 41.45 8.43835 40.6158 7.64168C39.6492 6.72001 38.2608 6.26168 36.4517 6.70668C36.0069 6.09857 35.4096 5.61853 34.72 5.31501C33.6075 4.83585 32.21 4.84585 30.6333 5.75335C28.9858 6.52418 28.1917 7.65835 27.9725 8.84751C27.8242 9.65585 27.9533 10.4225 28.1658 11.0275C26.7675 12.2533 26.3467 13.6533 26.5475 14.9725C26.7217 16.1133 27.3433 17.0883 27.9533 17.75C27.7383 18.7392 27.9058 19.6842 28.5383 20.4383C28.7017 20.6322 28.8878 20.8053 29.0967 20.9575C29.0929 20.9913 29.0913 21.0252 29.0917 21.0592C29.1108 22.6075 29.1992 23.8317 29.5167 24.7833C28.4933 25.1742 27.5283 25.9683 26.6483 27.1667C26.5513 27.2984 26.499 27.4577 26.499 27.6213C26.499 27.7848 26.5513 27.9441 26.6483 28.0758C27.5208 29.2642 28.4775 30.0558 29.4917 30.4492C29.2217 31.3725 29.1167 32.5875 29.0925 34.1808C29.0899 34.2902 29.1097 34.3988 29.1508 34.5002C29.1919 34.6015 29.2532 34.6934 29.3312 34.7701C29.4091 34.8467 29.5019 34.9066 29.6039 34.946C29.7059 34.9855 29.8149 35.0035 29.9242 34.9992ZM36.4333 27.6208C36.4333 28.4792 36.4 29.3375 36.2633 30.15V32.1717C37.0717 32.0442 38.1192 31.8675 39.3583 31.6308V28.5458H41.025V31.3C43.8621 30.7137 46.6761 30.0205 49.4608 29.2217V27.6217H51.1275V28.73C52.2467 28.3883 53.3942 28.02 54.5608 27.6217C52.9621 27.0748 51.3506 26.5664 49.7275 26.0967L49.6358 26.105L46.8917 25.315C46.4594 25.2022 46.0344 25.0939 45.6167 24.99V28.5458H43.95V24.5867C41.4071 23.9879 38.8431 23.482 36.2633 23.07V25.0917C36.3992 25.9042 36.4333 26.7625 36.4333 27.6208ZM34.5967 30.0042V25.2375C34.48 24.6042 34.2925 24.0683 34.0058 23.6267C33.5683 22.9525 32.7258 22.2517 30.7825 21.9933C30.825 23.0125 30.9208 23.7267 31.0967 24.2542L31.6033 25.7725L30.11 26.3425C29.5908 26.5408 29.0158 26.9358 28.4175 27.6208C29.0092 28.2992 29.58 28.6933 30.0942 28.8933L31.5217 29.4483L31.0908 30.9192C30.9325 31.46 30.8342 32.2008 30.7867 33.2475C32.7275 32.9892 33.5683 32.2892 34.0058 31.6158C34.2925 31.1742 34.48 30.6383 34.5975 30.005M35.3867 21.6133C34.4325 20.8733 33.2942 20.2967 31.9025 20.1758C30.7742 20.0775 30.125 19.7342 29.815 19.365C29.54 19.0375 29.4108 18.5425 29.6758 17.7758L29.8575 17.2508L29.4442 16.8808C28.915 16.4075 28.3292 15.595 28.1958 14.7217C28.0775 13.9417 28.2933 12.9583 29.675 11.9575L30.2708 11.5267L29.9175 10.8808C29.6925 10.47 29.4925 9.80585 29.6125 9.15085C29.7225 8.55418 30.1217 7.82751 31.3675 7.25251L31.4042 7.23585L31.4383 7.21585C32.625 6.52418 33.48 6.59751 34.0633 6.84918C34.695 7.12001 35.1358 7.65751 35.3333 8.05751L35.6592 8.71585L36.3525 8.47668C37.965 7.91835 38.895 8.30501 39.4667 8.85085C40.1058 9.46085 40.435 10.4075 40.52 11.1117L40.5858 11.6617L41.1192 11.8142C41.8992 12.0367 42.2308 12.4267 42.3417 12.84C42.4667 13.3058 42.375 14.0342 41.8083 15.0133C41.382 15.7552 41.1146 16.5776 41.0233 17.4283C40.7592 18.7392 40.915 20.06 41.4092 21.2633C41.4825 21.5592 41.5592 21.845 41.6317 22.1167L41.6608 22.2233C41.6753 22.2756 41.6878 22.3272 41.6983 22.3783C39.4883 21.915 37.6817 21.6033 36.4442 21.41C36.0785 21.352 35.7048 21.4239 35.3867 21.6133ZM49.8783 24.405C48.2139 23.9281 46.5391 23.4885 44.855 23.0867C44.0438 22.4725 43.4037 21.6605 42.9958 20.7283C42.7458 19.69 42.5733 18.6775 42.6667 17.7075C42.6833 17.6258 42.7028 17.5442 42.725 17.4625C43.1858 15.7408 44.3025 14.7183 45.3667 14.3983C46.3567 14.1008 47.5042 14.3375 48.4333 15.6017L49.2225 16.6767L50.4442 16.1417C51.88 15.5117 52.9908 15.8808 53.7 16.6342C54.4625 17.445 54.9183 18.8883 54.4583 20.6108C53.9275 22.5925 52.1242 24.0858 49.8783 24.405Z" fill="#C54E2C"/>
<path d="M115.95 16.684C116.034 16.9354 116.014 17.2097 115.896 17.4467C115.777 17.6837 115.57 17.864 115.318 17.948C115.011 18.0451 114.727 18.202 114.48 18.4096C114.234 18.6173 114.032 18.8716 113.884 19.158C113.512 19.856 113.26 21.004 113.494 22.878C113.527 23.1413 113.454 23.4069 113.291 23.6162C113.127 23.8254 112.888 23.9614 112.624 23.994C112.361 24.0266 112.096 23.9533 111.886 23.7901C111.677 23.6269 111.541 23.3873 111.508 23.124C111.244 20.998 111.49 19.396 112.12 18.218C112.76 17.018 113.734 16.368 114.684 16.052C114.809 16.0103 114.941 15.9935 115.072 16.0027C115.203 16.0119 115.331 16.0469 115.448 16.1056C115.566 16.1643 115.671 16.2456 115.757 16.3448C115.843 16.4441 115.909 16.5593 115.95 16.684ZM125.818 5.94798C125.946 5.90919 126.065 5.84514 126.168 5.7596C126.271 5.67407 126.355 5.56879 126.417 5.45C126.478 5.3312 126.515 5.20131 126.525 5.06799C126.536 4.93468 126.519 4.80065 126.477 4.67384C126.434 4.54703 126.367 4.43001 126.279 4.3297C126.19 4.2294 126.082 4.14784 125.962 4.08987C125.841 4.03189 125.711 3.99866 125.577 3.99215C125.443 3.98564 125.31 4.00599 125.184 4.05198C123.31 4.67598 122.14 6.21598 121.452 7.86598C121.36 8.08884 121.275 8.31498 121.198 8.54398C120.824 7.83428 120.344 7.18502 119.776 6.61798C119.007 5.84855 118.089 5.24418 117.078 4.84183C116.067 4.43948 114.984 4.24762 113.896 4.27798C112.736 4.30998 111.81 5.23798 111.778 6.39598C111.748 7.49816 111.945 8.59476 112.359 9.61695C112.772 10.6391 113.392 11.5649 114.18 12.336C112.5 12.6993 110.982 13.5942 109.85 14.8882C108.718 16.1821 108.033 17.8063 107.896 19.52L107.884 19.668C107.62 22.9624 108.322 26.2623 109.904 29.164L110.624 30.48C110.643 30.5146 110.664 30.548 110.688 30.58L112.688 33.384C113.142 34.0188 113.728 34.5472 114.406 34.9325C115.084 35.3179 115.838 35.5508 116.616 35.6151C117.393 35.6795 118.175 35.5737 118.908 35.3051C119.64 35.0365 120.305 34.6116 120.856 34.06C120.941 33.9753 121.042 33.908 121.152 33.8622C121.263 33.8163 121.382 33.7927 121.501 33.7927C121.621 33.7927 121.74 33.8163 121.851 33.8622C121.961 33.908 122.062 33.9753 122.146 34.06C122.698 34.6116 123.363 35.0365 124.095 35.3051C124.828 35.5737 125.61 35.6795 126.387 35.6151C127.164 35.5508 127.919 35.3179 128.597 34.9325C129.275 34.5472 129.861 34.0188 130.314 33.384L132.314 30.582L132.378 30.48L133.096 29.164C134.679 26.2623 135.38 22.9624 135.116 19.668L135.106 19.52C135.018 18.4155 134.701 17.3415 134.176 16.366C133.65 15.3905 132.928 14.5347 132.055 13.853C131.181 13.1712 130.176 12.6783 129.102 12.4054C128.028 12.1326 126.909 12.0858 125.816 12.268L122.502 12.82C122.522 11.458 122.762 9.92598 123.3 8.63398C123.86 7.28398 124.692 6.32398 125.816 5.94798M118.938 12.56L118.63 12.508C117.457 12.2796 116.378 11.7058 115.532 10.86C114.956 10.2828 114.502 9.59404 114.201 8.83577C113.899 8.07751 113.756 7.26569 113.778 6.44998C113.78 6.4043 113.799 6.36091 113.831 6.3286C113.863 6.29629 113.907 6.27747 113.952 6.27598C114.768 6.25334 115.58 6.39739 116.338 6.69933C117.097 7.00126 117.785 7.45472 118.362 8.03198C119.576 9.24598 120.162 10.848 120.116 12.442C120.115 12.4876 120.096 12.531 120.064 12.5634C120.031 12.5957 119.988 12.6145 119.942 12.616C119.607 12.6254 119.271 12.6067 118.938 12.56ZM118.282 14.478L118.628 14.536L120.186 14.796C121.057 14.9411 121.946 14.9411 122.816 14.796L126.144 14.24C126.964 14.1032 127.803 14.1383 128.609 14.343C129.414 14.5476 130.169 14.9174 130.824 15.4288C131.479 15.9403 132.021 16.5823 132.415 17.3141C132.809 18.0459 133.046 18.8515 133.112 19.68L133.124 19.828C133.357 22.7353 132.737 25.6475 131.34 28.208L130.652 29.468L128.686 32.22C128.402 32.6185 128.034 32.9503 127.609 33.1923C127.183 33.4342 126.71 33.5806 126.222 33.6211C125.734 33.6617 125.243 33.5954 124.784 33.427C124.324 33.2586 123.907 32.9921 123.56 32.646C123.29 32.3753 122.969 32.1606 122.615 32.0141C122.262 31.8676 121.883 31.7922 121.5 31.7922C121.118 31.7922 120.739 31.8676 120.385 32.0141C120.032 32.1606 119.711 32.3753 119.44 32.646C119.094 32.9917 118.677 33.258 118.217 33.4262C117.758 33.5944 117.267 33.6605 116.78 33.62C116.292 33.5794 115.819 33.4332 115.394 33.1914C114.968 32.9497 114.601 32.6182 114.316 32.22L112.35 29.468L111.662 28.208C110.266 25.6475 109.646 22.7353 109.878 19.828L109.89 19.68C109.957 18.8517 110.194 18.0462 110.588 17.3146C110.982 16.583 111.523 15.9411 112.178 15.4297C112.833 14.9183 113.587 14.5484 114.392 14.3437C115.198 14.1389 116.037 14.1036 116.856 14.24L118.282 14.478Z" fill="#EFBF43"/>
<path d="M202.356 4.42396C202.12 4.21408 201.815 4.09814 201.499 4.09814C201.183 4.09814 200.878 4.21408 200.642 4.42396C199.058 5.82861 197.894 7.64446 197.28 9.67013C196.665 11.6958 196.624 13.8521 197.16 15.9C194.621 14.4003 191.679 13.7279 188.742 13.976C188.567 13.9903 188.398 14.039 188.242 14.1193C188.087 14.1995 187.949 14.3098 187.836 14.4436C187.723 14.5775 187.638 14.7323 187.586 14.8992C187.533 15.0661 187.514 15.2417 187.53 15.416C187.778 18.146 189.058 20.856 190.832 22.956C190.136 22.9105 189.437 22.9172 188.742 22.976C188.567 22.9903 188.398 23.039 188.242 23.1193C188.087 23.1995 187.949 23.3098 187.836 23.4436C187.723 23.5775 187.638 23.7323 187.586 23.8992C187.533 24.0661 187.514 24.2417 187.53 24.416C187.818 27.5813 189.279 30.5246 191.627 32.6678C193.974 34.8111 197.037 35.9996 200.216 36H202.782C205.96 35.9991 209.022 34.8107 211.369 32.6679C213.716 30.5251 215.177 27.5826 215.466 24.418C215.482 24.2435 215.463 24.0677 215.41 23.9006C215.358 23.7335 215.273 23.5784 215.16 23.4443C215.048 23.3103 214.909 23.1998 214.754 23.1195C214.598 23.0391 214.428 22.9903 214.254 22.976C213.559 22.9172 212.86 22.9105 212.164 22.956C213.938 20.856 215.218 18.146 215.464 15.416C215.479 15.2419 215.46 15.0665 215.407 14.8999C215.355 14.7332 215.27 14.5786 215.158 14.4448C215.045 14.3111 214.907 14.2008 214.752 14.1203C214.597 14.0399 214.428 13.9908 214.254 13.976C211.317 13.7283 208.375 14.4007 205.838 15.9C206.374 13.8523 206.333 11.6961 205.719 9.67044C205.104 7.64479 203.939 5.82884 202.356 4.42396ZM201.5 28.856C199.789 26.4831 197.392 24.6919 194.632 23.724L194.562 23.672C192.16 22.04 190.128 19 189.614 15.932C192.624 15.8534 195.558 16.8873 197.854 18.836C199.372 20.122 199.79 21.296 200.164 22.352C200.3 22.732 200.43 23.098 200.604 23.446C200.687 23.6124 200.814 23.7524 200.972 23.8502C201.131 23.9481 201.313 23.9999 201.499 23.9999C201.685 23.9999 201.867 23.9481 202.025 23.8502C202.183 23.7524 202.311 23.6124 202.394 23.446C202.568 23.098 202.698 22.732 202.834 22.35C203.208 21.298 203.626 20.122 205.146 18.836C207.441 16.887 210.374 15.8524 213.384 15.93C212.87 19 210.838 22.038 208.436 23.672L208.366 23.724C205.606 24.6923 203.21 26.4834 201.5 28.856ZM200.216 34C197.657 33.9992 195.183 33.0851 193.239 31.4223C191.294 29.7595 190.008 27.4573 189.61 24.93C191.843 24.8727 194.05 25.4268 195.992 26.5326C197.933 27.6384 199.536 29.2537 200.626 31.204C200.712 31.3593 200.839 31.4887 200.993 31.5787C201.146 31.6688 201.321 31.7162 201.499 31.7162C201.677 31.7162 201.851 31.6688 202.005 31.5787C202.158 31.4887 202.285 31.3593 202.372 31.204C203.462 29.2537 205.064 27.6384 207.006 26.5326C208.947 25.4268 211.154 24.8727 213.388 24.93C212.99 27.4576 211.703 29.7601 209.758 31.423C207.813 33.0858 205.338 33.9996 202.78 34H200.216ZM201.498 19.632C199.763 17.8601 198.791 15.4789 198.791 12.999C198.791 10.519 199.763 8.13778 201.498 6.36596C203.233 8.13778 204.205 10.519 204.205 12.999C204.205 15.4789 203.233 17.8601 201.498 19.632Z" fill="#94B38A"/>
<path d="M277.324 18.694C277.238 15.176 277.804 11.176 280.182 8.798C281.568 7.412 283.502 6.644 285.61 6.278C287.714 5.91 289.908 5.958 291.712 6.132C292.653 6.21451 293.536 6.62625 294.204 7.29487C294.872 7.9635 295.284 8.84624 295.366 9.788C295.54 11.594 295.586 13.788 295.222 15.892C294.856 18.002 294.088 19.936 292.702 21.322C290.322 23.702 286.322 24.268 282.804 24.182C282.082 24.1633 281.381 24.4239 280.847 24.9094C280.313 25.395 279.987 26.068 279.938 26.788C279.742 29.73 279.154 33.128 277.714 35.83C277.648 35.952 277.59 35.982 277.57 35.99C277.527 36.0062 277.481 36.0077 277.438 35.994C277.308 35.96 277.112 35.818 277.052 35.504C276.771 33.9647 276.412 32.4407 275.976 30.938C275.772 30.2363 275.521 29.5494 275.224 28.882C274.952 28.288 274.62 27.71 274.206 27.296C273.792 26.882 273.216 26.55 272.622 26.278C271.954 25.9799 271.266 25.728 270.564 25.524C269.061 25.0866 267.537 24.7261 265.998 24.444C265.684 24.384 265.542 24.188 265.508 24.058C265.494 24.0148 265.495 23.9683 265.512 23.926C265.52 23.906 265.552 23.846 265.672 23.782C268.376 22.342 271.772 21.756 274.716 21.562C276.216 21.462 277.36 20.182 277.324 18.694ZM278.768 7.384C275.768 10.386 275.236 15.144 275.324 18.744C275.329 18.9496 275.256 19.1495 275.118 19.3022C274.98 19.4549 274.789 19.5487 274.584 19.564C271.532 19.768 267.804 20.38 264.732 22.016C263.704 22.566 263.326 23.61 263.572 24.562C263.812 25.47 264.582 26.212 265.628 26.408C267.096 26.6772 268.55 27.021 269.984 27.438C270.672 27.646 271.288 27.868 271.788 28.098C272.306 28.334 272.628 28.548 272.792 28.712C272.956 28.876 273.168 29.198 273.404 29.714C273.634 30.214 273.854 30.83 274.064 31.52C274.48 32.896 274.826 34.488 275.088 35.874C275.284 36.92 276.026 37.694 276.932 37.93C277.886 38.18 278.93 37.802 279.478 36.77C281.114 33.702 281.728 29.974 281.934 26.922C281.949 26.7169 282.043 26.5256 282.195 26.3878C282.348 26.25 282.548 26.1763 282.754 26.182C286.354 26.27 291.114 25.742 294.114 22.738C295.898 20.954 296.786 18.574 297.192 16.236C297.6 13.89 297.54 11.502 297.358 9.596C297.231 8.19188 296.616 6.87664 295.619 5.87957C294.623 4.88251 293.308 4.26688 291.904 4.14C289.998 3.958 287.61 3.9 285.268 4.306C282.928 4.712 280.55 5.6 278.768 7.384ZM288.002 8.998C288.399 8.998 288.781 9.15604 289.062 9.43734C289.344 9.71865 289.502 10.1002 289.502 10.498C289.502 10.8958 289.344 11.2774 289.062 11.5587C288.781 11.84 288.399 11.998 288.002 11.998C287.604 11.998 287.222 11.84 286.941 11.5587C286.66 11.2774 286.502 10.8958 286.502 10.498C286.502 10.1002 286.66 9.71865 286.941 9.43734C287.222 9.15604 287.604 8.998 288.002 8.998Z" fill="#C54E2C"/>
<path d="M377.208 5.70801C377.396 5.5205 377.502 5.26608 377.502 5.00071C377.502 4.73535 377.397 4.48078 377.209 4.29301C377.022 4.10523 376.767 3.99964 376.502 3.99945C376.237 3.99926 375.982 4.1045 375.794 4.29201L369.5 10.584V5.00001C369.5 4.73479 369.395 4.48044 369.208 4.2929C369.02 4.10536 368.766 4.00001 368.5 4.00001C368.235 4.00001 367.981 4.10536 367.793 4.2929C367.606 4.48044 367.5 4.73479 367.5 5.00001V10.754C364.344 9.18201 360.32 10.074 358.22 13.166L346.046 31.058C345.19 32.318 345.354 33.998 346.438 35.072C347.538 36.16 349.268 36.31 350.544 35.428L368.404 23.06C369.822 22.0862 370.84 20.6336 371.272 18.9692C371.704 17.3047 371.521 15.5402 370.756 14H376.5C376.766 14 377.02 13.8946 377.208 13.7071C377.395 13.5196 377.5 13.2652 377.5 13C377.5 12.7348 377.395 12.4804 377.208 12.2929C377.02 12.1054 376.766 12 376.5 12H370.914L377.208 5.70801ZM359.888 14.276C361.732 11.566 365.618 11.194 367.952 13.504C368.494 14.0378 368.91 14.6847 369.173 15.3983C369.435 16.1119 369.536 16.8746 369.469 17.6319C369.402 18.3892 369.169 19.1223 368.786 19.7789C368.402 20.4355 367.879 20.9993 367.252 21.43L349.392 33.798C349.162 33.9589 348.882 34.0337 348.602 34.0096C348.323 33.9855 348.06 33.8639 347.86 33.666C347.665 33.4733 347.543 33.2179 347.516 32.9445C347.489 32.6711 347.56 32.3969 347.714 32.17L359.888 14.276Z" fill="#EFBF43"/>
<path d="M456.5 16.5625H454.902C454.654 13.1777 453.134 10.0122 450.648 7.70177C448.162 5.39132 444.894 4.10712 441.5 4.10712C438.106 4.10712 434.838 5.39132 432.352 7.70177C429.866 10.0122 428.346 13.1777 428.098 16.5625H426.5C426.251 16.5625 426.013 16.6613 425.837 16.8371C425.661 17.0129 425.562 17.2514 425.562 17.5C425.568 20.4476 426.388 23.3364 427.932 25.8472C429.476 28.3581 431.684 30.3933 434.312 31.7281V32.5C434.312 33.0802 434.543 33.6366 434.953 34.0468C435.363 34.457 435.92 34.6875 436.5 34.6875H446.5C447.08 34.6875 447.637 34.457 448.047 34.0468C448.457 33.6366 448.688 33.0802 448.688 32.5V31.7281C451.316 30.3933 453.524 28.3581 455.068 25.8472C456.612 23.3364 457.432 20.4476 457.438 17.5C457.438 17.2514 457.339 17.0129 457.163 16.8371C456.987 16.6613 456.749 16.5625 456.5 16.5625ZM448.725 8.48283C449.179 8.84609 449.604 9.24305 449.998 9.67032C448.258 10.2121 446.647 11.1026 445.262 12.2875C443.877 13.4724 442.748 14.927 441.944 16.5625H436.709C437.448 14.2109 438.916 12.1556 440.901 10.6947C442.886 9.23379 445.285 8.44318 447.75 8.43751C448.075 8.43751 448.402 8.4547 448.725 8.48283ZM451.234 11.2719C452.256 12.8615 452.87 14.6788 453.022 16.5625H444.075C444.859 15.2508 445.895 14.1077 447.124 13.1995C448.353 12.2913 449.75 11.6361 451.234 11.2719ZM441.5 5.93751C442.932 5.93525 444.352 6.2002 445.688 6.71876C443.109 7.12584 440.703 8.27263 438.764 10.02C436.824 11.7673 435.433 14.0401 434.759 16.5625H429.978C430.217 13.6694 431.534 10.9716 433.668 9.00367C435.802 7.03576 438.597 5.9414 441.5 5.93751ZM447.359 30.2875C447.196 30.3624 447.058 30.4826 446.961 30.6338C446.864 30.7851 446.812 30.961 446.812 31.1406V32.5C446.812 32.5829 446.78 32.6624 446.721 32.721C446.662 32.7796 446.583 32.8125 446.5 32.8125H436.5C436.417 32.8125 436.338 32.7796 436.279 32.721C436.22 32.6624 436.188 32.5829 436.188 32.5V31.1406C436.188 30.961 436.136 30.7851 436.039 30.6338C435.942 30.4826 435.804 30.3624 435.641 30.2875C433.341 29.2269 431.369 27.5672 429.931 25.4823C428.493 23.3974 427.643 20.9641 427.469 18.4375H455.531C455.357 20.9641 454.507 23.3974 453.069 25.4823C451.631 27.5672 449.659 29.2269 447.359 30.2875Z" fill="#94B38A"/>
<path d="M521.628 19.16C521.76 19.1805 521.894 19.1746 522.023 19.1424C522.153 19.1103 522.274 19.0527 522.381 18.9729C522.488 18.8932 522.577 18.7929 522.645 18.6781C522.712 18.5632 522.756 18.436 522.774 18.304C522.791 18.172 522.782 18.0377 522.747 17.9092C522.712 17.7807 522.652 17.6605 522.57 17.5556C522.488 17.4507 522.385 17.3633 522.269 17.2984C522.153 17.2336 522.025 17.1927 521.892 17.178C520.012 16.928 518.332 18.356 518.332 20.44C518.332 20.7052 518.438 20.9596 518.625 21.1471C518.813 21.3347 519.067 21.44 519.332 21.44C519.597 21.44 519.852 21.3347 520.039 21.1471C520.227 20.9596 520.332 20.7052 520.332 20.44C520.332 19.526 520.988 19.074 521.628 19.16ZM522.316 29.93C524.701 29.93 526.987 28.9829 528.673 27.2969C530.359 25.611 531.306 23.3243 531.306 20.94C531.306 18.5557 530.359 16.2691 528.673 14.5831C526.987 12.8972 524.701 11.95 522.316 11.95C519.932 11.95 517.645 12.8972 515.959 14.5831C514.273 16.2691 513.326 18.5557 513.326 20.94C513.326 23.3243 514.273 25.611 515.959 27.2969C517.645 28.9829 519.932 29.93 522.316 29.93ZM522.316 27.93C520.462 27.93 518.684 27.1936 517.374 25.8827C516.063 24.5718 515.326 22.7939 515.326 20.94C515.326 19.0862 516.063 17.3082 517.374 15.9973C518.684 14.6865 520.462 13.95 522.316 13.95C524.17 13.95 525.948 14.6865 527.259 15.9973C528.57 17.3082 529.306 19.0862 529.306 20.94C529.306 22.7939 528.57 24.5718 527.259 25.8827C525.948 27.1936 524.17 27.93 522.316 27.93ZM524.752 4.15001C526.842 4.28601 528.804 4.90801 530.206 5.79201C533.42 7.82201 534.806 10.054 535.606 11.452C536.384 12.808 537.918 15.818 537.698 19.1C537.641 19.9841 537.524 20.8634 537.35 21.732L537.27 22.16C537.158 22.808 537.088 23.472 537.206 24.916C537.346 26.618 537.002 28.482 536.282 30.136C535.562 31.786 534.432 33.31 532.926 34.25C529.796 36.206 526.026 36.63 522.49 35.216C520.872 34.57 520.326 34.416 519.714 34.38C519.284 34.3641 518.852 34.3681 518.422 34.392H518.408C517.828 34.416 517.084 34.444 516.05 34.444C511.504 34.444 508.48 31.724 506.936 28.756C504.674 24.404 504.736 17.816 509.71 13.89C511.23 12.69 511.684 12.29 512.196 11.436C513.038 10.032 513.838 8.93201 514.806 7.98401C515.776 7.03201 516.878 6.26601 518.294 5.48801C520.352 4.35601 522.654 4.01201 524.752 4.14801M524.622 6.14401C522.822 6.02401 520.914 6.32801 519.256 7.24001C517.948 7.96001 517.008 8.62401 516.206 9.41001C515.404 10.198 514.704 11.142 513.912 12.462C513.188 13.668 512.456 14.268 510.95 15.456C506.93 18.63 506.758 24.076 508.71 27.832C510 30.312 512.426 32.442 516.05 32.442C517.046 32.442 517.762 32.414 518.336 32.392H518.374C518.926 32.372 519.394 32.352 519.84 32.382C520.806 32.442 521.62 32.712 523.232 33.358C526.154 34.526 529.256 34.184 531.866 32.552C532.942 31.88 533.846 30.722 534.448 29.334C535.052 27.95 535.324 26.418 535.214 25.078C535.082 23.48 535.154 22.646 535.3 21.814L535.39 21.332C535.504 20.726 535.626 20.082 535.702 18.964C535.882 16.31 534.616 13.744 533.872 12.444C533.15 11.188 531.964 9.26401 529.138 7.48201C528.058 6.80001 526.43 6.26401 524.622 6.14401Z" fill="#C54E2C"/>
<path d="M593.261 10.3217C593.36 10.2731 593.466 10.2444 593.576 10.2371C593.685 10.2298 593.794 10.2441 593.898 10.2791C594.002 10.3142 594.097 10.3693 594.18 10.4414C594.262 10.5135 594.33 10.6011 594.378 10.6992L595.037 12.0359L596.381 10.5942C596.532 10.4326 596.741 10.3374 596.962 10.3296C597.182 10.3218 597.397 10.402 597.559 10.5525C597.895 10.8675 597.913 11.395 597.6 11.7317L595.826 13.6342L596.496 14.9892L597.605 13.9784C597.686 13.9047 597.78 13.8477 597.883 13.8106C597.986 13.7736 598.096 13.7571 598.205 13.7623C598.314 13.7675 598.422 13.7942 598.521 13.8408C598.62 13.8875 598.709 13.9532 598.782 14.0342C598.856 14.1152 598.913 14.21 598.951 14.3132C598.988 14.4163 599.004 14.5258 598.999 14.6354C598.994 14.7449 598.967 14.8524 598.92 14.9516C598.874 15.0507 598.808 15.1397 598.726 15.2134L597.264 16.545L598.144 18.3275C598.242 18.5257 598.258 18.7547 598.187 18.9642C598.116 19.1737 597.965 19.3465 597.767 19.4446C597.569 19.5428 597.34 19.5582 597.13 19.4874C596.921 19.4167 596.748 19.2657 596.65 19.0675L595.737 17.2184L594.101 17.55C593.884 17.5939 593.658 17.5498 593.474 17.4274C593.289 17.3051 593.161 17.1145 593.117 16.8975C593.073 16.6806 593.118 16.4551 593.24 16.2707C593.362 16.0863 593.553 15.9581 593.77 15.9142L594.973 15.6709L594.311 14.3292L591.777 14.7109C591.559 14.7437 591.336 14.6882 591.158 14.5567C590.98 14.4252 590.861 14.2284 590.829 14.0096C590.796 13.7908 590.851 13.5679 590.983 13.39C591.114 13.2121 591.311 13.0937 591.53 13.0609L593.535 12.7584L592.884 11.4392C592.835 11.3411 592.806 11.2343 592.799 11.125C592.792 11.0157 592.806 10.906 592.841 10.8022C592.876 10.6984 592.931 10.6025 593.003 10.5201C593.076 10.4376 593.163 10.3702 593.261 10.3217ZM612.095 17.7075C612.204 17.6962 612.314 17.7065 612.419 17.7377C612.524 17.769 612.621 17.8206 612.706 17.8896C612.791 17.9586 612.862 18.0437 612.914 18.14C612.966 18.2364 612.999 18.342 613.01 18.4509C613.176 20.04 612.476 21.5425 611.154 22.4375C610.971 22.5513 610.75 22.5895 610.539 22.5442C610.328 22.499 610.143 22.3738 610.022 22.1948C609.901 22.0159 609.854 21.7971 609.892 21.5845C609.929 21.3718 610.047 21.1818 610.221 21.0542C610.615 20.7928 610.929 20.4275 611.129 19.9987C611.329 19.5699 611.406 19.0942 611.352 18.6242C611.341 18.5152 611.351 18.4051 611.382 18.3C611.413 18.1949 611.464 18.097 611.533 18.0119C611.602 17.9267 611.688 17.856 611.784 17.8038C611.88 17.7516 611.986 17.7189 612.095 17.7075Z" fill="#EFBF43"/>
<path fill-rule="evenodd" clip-rule="evenodd" d="M589.924 34.9992C592.394 34.8742 593.937 34.1875 594.895 33.1725C595.23 33.6508 595.812 33.9308 596.442 33.8325C599.754 33.3158 607.134 31.9558 615.428 29.0875C615.74 28.9889 616.012 28.7936 616.205 28.5299C616.398 28.2661 616.503 27.9477 616.503 27.6208C616.503 27.294 616.398 26.9756 616.205 26.7118C616.012 26.4481 615.74 26.2528 615.428 26.1542C614.488 25.8297 613.561 25.5239 612.647 25.2367C614.302 24.3642 615.571 22.9 616.067 21.0417C617.188 16.8542 614.247 13.2108 610.429 14.37C610.16 12.4483 610.783 10.6783 612.419 9.73251L611.586 8.28751C609.562 9.45668 608.712 11.4575 608.705 13.5067C607.271 12.4092 605.532 12.3675 604.055 13.14C604.049 12.8926 604.014 12.6467 603.95 12.4075C603.696 11.4567 603.017 10.7775 602.083 10.3867C601.892 9.50668 601.45 8.43835 600.616 7.64168C599.649 6.72001 598.261 6.26168 596.452 6.70668C596.007 6.09857 595.41 5.61853 594.72 5.31501C593.607 4.83585 592.21 4.84585 590.633 5.75335C588.986 6.52418 588.192 7.65835 587.972 8.84751C587.824 9.65585 587.953 10.4225 588.166 11.0275C586.767 12.2533 586.347 13.6533 586.547 14.9725C586.722 16.1133 587.343 17.0883 587.953 17.75C587.738 18.7392 587.906 19.6842 588.538 20.4383C588.702 20.6322 588.888 20.8053 589.097 20.9575C589.093 20.9913 589.091 21.0252 589.092 21.0592C589.111 22.6075 589.199 23.8317 589.517 24.7833C588.493 25.1742 587.528 25.9683 586.648 27.1667C586.551 27.2984 586.499 27.4577 586.499 27.6213C586.499 27.7848 586.551 27.9441 586.648 28.0758C587.521 29.2642 588.477 30.0558 589.492 30.4492C589.222 31.3725 589.117 32.5875 589.092 34.1808C589.09 34.2902 589.11 34.3988 589.151 34.5002C589.192 34.6015 589.253 34.6934 589.331 34.7701C589.409 34.8467 589.502 34.9066 589.604 34.946C589.706 34.9855 589.815 35.0035 589.924 34.9992ZM596.433 27.6208C596.433 28.4792 596.4 29.3375 596.263 30.15V32.1717C597.072 32.0442 598.119 31.8675 599.358 31.6308V28.5458H601.025V31.3C603.862 30.7137 606.676 30.0205 609.461 29.2217V27.6217H611.127V28.73C612.247 28.3883 613.394 28.02 614.561 27.6217C612.962 27.0748 611.351 26.5664 609.727 26.0967L609.636 26.105L606.892 25.315C606.459 25.2022 606.034 25.0939 605.617 24.99V28.5458H603.95V24.5867C601.407 23.9879 598.843 23.482 596.263 23.07V25.0917C596.399 25.9042 596.433 26.7625 596.433 27.6208ZM594.597 30.0042V25.2375C594.48 24.6042 594.292 24.0683 594.006 23.6267C593.568 22.9525 592.726 22.2517 590.782 21.9933C590.825 23.0125 590.921 23.7267 591.097 24.2542L591.603 25.7725L590.11 26.3425C589.591 26.5408 589.016 26.9358 588.417 27.6208C589.009 28.2992 589.58 28.6933 590.094 28.8933L591.522 29.4483L591.091 30.9192C590.932 31.46 590.834 32.2008 590.787 33.2475C592.727 32.9892 593.568 32.2892 594.006 31.6158C594.292 31.1742 594.48 30.6383 594.597 30.005M595.387 21.6133C594.432 20.8733 593.294 20.2967 591.902 20.1758C590.774 20.0775 590.125 19.7342 589.815 19.365C589.54 19.0375 589.411 18.5425 589.676 17.7758L589.857 17.2508L589.444 16.8808C588.915 16.4075 588.329 15.595 588.196 14.7217C588.077 13.9417 588.293 12.9583 589.675 11.9575L590.271 11.5267L589.917 10.8808C589.692 10.47 589.492 9.80585 589.612 9.15085C589.722 8.55418 590.122 7.82751 591.367 7.25251L591.404 7.23585L591.438 7.21585C592.625 6.52418 593.48 6.59751 594.063 6.84918C594.695 7.12001 595.136 7.65751 595.333 8.05751L595.659 8.71585L596.352 8.47668C597.965 7.91835 598.895 8.30501 599.467 8.85085C600.106 9.46085 600.435 10.4075 600.52 11.1117L600.586 11.6617L601.119 11.8142C601.899 12.0367 602.231 12.4267 602.342 12.84C602.467 13.3058 602.375 14.0342 601.808 15.0133C601.382 15.7552 601.115 16.5776 601.023 17.4283C600.759 18.7392 600.915 20.06 601.409 21.2633C601.482 21.5592 601.559 21.845 601.632 22.1167L601.661 22.2233C601.675 22.2756 601.688 22.3272 601.698 22.3783C599.488 21.915 597.682 21.6033 596.444 21.41C596.078 21.352 595.705 21.4239 595.387 21.6133ZM609.878 24.405C608.214 23.9281 606.539 23.4885 604.855 23.0867C604.044 22.4725 603.404 21.6605 602.996 20.7283C602.746 19.69 602.573 18.6775 602.667 17.7075C602.683 17.6258 602.703 17.5442 602.725 17.4625C603.186 15.7408 604.302 14.7183 605.367 14.3983C606.357 14.1008 607.504 14.3375 608.433 15.6017L609.222 16.6767L610.444 16.1417C611.88 15.5117 612.991 15.8808 613.7 16.6342C614.462 17.445 614.918 18.8883 614.458 20.6108C613.927 22.5925 612.124 24.0858 609.878 24.405Z" fill="#EFBF43"/>
<path d="M675.95 16.684C676.034 16.9354 676.014 17.2097 675.896 17.4467C675.777 17.6837 675.57 17.864 675.318 17.948C675.011 18.0451 674.727 18.202 674.48 18.4096C674.234 18.6173 674.032 18.8716 673.884 19.158C673.512 19.856 673.26 21.004 673.494 22.878C673.527 23.1413 673.454 23.4069 673.291 23.6162C673.127 23.8254 672.888 23.9614 672.624 23.994C672.361 24.0266 672.096 23.9533 671.886 23.7901C671.677 23.6269 671.541 23.3873 671.508 23.124C671.244 20.998 671.49 19.396 672.12 18.218C672.76 17.018 673.734 16.368 674.684 16.052C674.809 16.0103 674.941 15.9935 675.072 16.0027C675.203 16.0119 675.331 16.0469 675.448 16.1056C675.566 16.1643 675.671 16.2456 675.757 16.3448C675.843 16.4441 675.909 16.5593 675.95 16.684ZM685.818 5.94798C685.946 5.90919 686.065 5.84514 686.168 5.7596C686.271 5.67407 686.355 5.56879 686.417 5.45C686.478 5.3312 686.515 5.20131 686.525 5.06799C686.536 4.93468 686.519 4.80065 686.477 4.67384C686.434 4.54703 686.367 4.43001 686.279 4.3297C686.19 4.2294 686.082 4.14784 685.962 4.08987C685.841 4.03189 685.711 3.99866 685.577 3.99215C685.443 3.98564 685.31 4.00599 685.184 4.05198C683.31 4.67598 682.14 6.21598 681.452 7.86598C681.36 8.08884 681.275 8.31498 681.198 8.54398C680.824 7.83428 680.344 7.18502 679.776 6.61798C679.007 5.84855 678.089 5.24418 677.078 4.84183C676.067 4.43948 674.984 4.24762 673.896 4.27798C672.736 4.30998 671.81 5.23798 671.778 6.39598C671.748 7.49816 671.945 8.59476 672.359 9.61695C672.772 10.6391 673.392 11.5649 674.18 12.336C672.5 12.6993 670.982 13.5942 669.85 14.8882C668.718 16.1821 668.033 17.8063 667.896 19.52L667.884 19.668C667.62 22.9624 668.322 26.2623 669.904 29.164L670.624 30.48C670.643 30.5146 670.664 30.548 670.688 30.58L672.688 33.384C673.142 34.0188 673.728 34.5472 674.406 34.9325C675.084 35.3179 675.838 35.5508 676.616 35.6151C677.393 35.6795 678.175 35.5737 678.908 35.3051C679.64 35.0365 680.305 34.6116 680.856 34.06C680.941 33.9753 681.042 33.908 681.152 33.8622C681.263 33.8163 681.382 33.7927 681.501 33.7927C681.621 33.7927 681.74 33.8163 681.851 33.8622C681.961 33.908 682.062 33.9753 682.146 34.06C682.698 34.6116 683.363 35.0365 684.095 35.3051C684.828 35.5737 685.61 35.6795 686.387 35.6151C687.164 35.5508 687.919 35.3179 688.597 34.9325C689.275 34.5472 689.861 34.0188 690.314 33.384L692.314 30.582L692.378 30.48L693.096 29.164C694.679 26.2623 695.38 22.9624 695.116 19.668L695.106 19.52C695.018 18.4155 694.701 17.3415 694.176 16.366C693.65 15.3905 692.928 14.5347 692.055 13.853C691.181 13.1712 690.176 12.6783 689.102 12.4054C688.028 12.1326 686.909 12.0858 685.816 12.268L682.502 12.82C682.522 11.458 682.762 9.92598 683.3 8.63398C683.86 7.28398 684.692 6.32398 685.816 5.94798M678.938 12.56L678.63 12.508C677.457 12.2796 676.378 11.7058 675.532 10.86C674.956 10.2828 674.502 9.59404 674.201 8.83577C673.899 8.07751 673.756 7.26569 673.778 6.44998C673.78 6.4043 673.799 6.36091 673.831 6.3286C673.863 6.29629 673.907 6.27747 673.952 6.27598C674.768 6.25334 675.58 6.39739 676.338 6.69933C677.097 7.00126 677.785 7.45472 678.362 8.03198C679.576 9.24598 680.162 10.848 680.116 12.442C680.115 12.4876 680.096 12.531 680.064 12.5634C680.031 12.5957 679.988 12.6145 679.942 12.616C679.607 12.6254 679.271 12.6067 678.938 12.56ZM678.282 14.478L678.628 14.536L680.186 14.796C681.057 14.9411 681.946 14.9411 682.816 14.796L686.144 14.24C686.964 14.1032 687.803 14.1383 688.609 14.343C689.414 14.5476 690.169 14.9174 690.824 15.4288C691.479 15.9403 692.021 16.5823 692.415 17.3141C692.809 18.0459 693.046 18.8515 693.112 19.68L693.124 19.828C693.357 22.7353 692.737 25.6475 691.34 28.208L690.652 29.468L688.686 32.22C688.402 32.6185 688.034 32.9503 687.609 33.1923C687.183 33.4342 686.71 33.5806 686.222 33.6211C685.734 33.6617 685.243 33.5954 684.784 33.427C684.324 33.2586 683.907 32.9921 683.56 32.646C683.29 32.3753 682.969 32.1606 682.615 32.0141C682.262 31.8676 681.883 31.7922 681.5 31.7922C681.118 31.7922 680.739 31.8676 680.385 32.0141C680.032 32.1606 679.711 32.3753 679.44 32.646C679.094 32.9917 678.677 33.258 678.217 33.4262C677.758 33.5944 677.267 33.6605 676.78 33.62C676.292 33.5794 675.819 33.4332 675.394 33.1914C674.968 32.9497 674.601 32.6182 674.316 32.22L672.35 29.468L671.662 28.208C670.266 25.6475 669.646 22.7353 669.878 19.828L669.89 19.68C669.957 18.8517 670.194 18.0462 670.588 17.3146C670.982 16.583 671.523 15.9411 672.178 15.4297C672.833 14.9183 673.587 14.5484 674.392 14.3437C675.198 14.1389 676.037 14.1036 676.856 14.24L678.282 14.478Z" fill="#94B38A"/>
<path d="M762.356 4.42396C762.12 4.21408 761.815 4.09814 761.499 4.09814C761.183 4.09814 760.878 4.21408 760.642 4.42396C759.058 5.82861 757.894 7.64446 757.28 9.67013C756.665 11.6958 756.624 13.8521 757.16 15.9C754.621 14.4003 751.679 13.7279 748.742 13.976C748.567 13.9903 748.398 14.039 748.242 14.1193C748.087 14.1995 747.949 14.3098 747.836 14.4436C747.723 14.5775 747.638 14.7323 747.586 14.8992C747.533 15.0661 747.514 15.2417 747.53 15.416C747.778 18.146 749.058 20.856 750.832 22.956C750.136 22.9105 749.437 22.9172 748.742 22.976C748.567 22.9903 748.398 23.039 748.242 23.1193C748.087 23.1995 747.949 23.3098 747.836 23.4436C747.723 23.5775 747.638 23.7323 747.586 23.8992C747.533 24.0661 747.514 24.2417 747.53 24.416C747.818 27.5813 749.279 30.5246 751.627 32.6678C753.974 34.8111 757.037 35.9996 760.216 36H762.782C765.96 35.9991 769.022 34.8107 771.369 32.6679C773.716 30.5251 775.177 27.5826 775.466 24.418C775.482 24.2435 775.463 24.0677 775.41 23.9006C775.358 23.7335 775.273 23.5784 775.16 23.4443C775.048 23.3103 774.909 23.1998 774.754 23.1195C774.598 23.0391 774.428 22.9903 774.254 22.976C773.559 22.9172 772.86 22.9105 772.164 22.956C773.938 20.856 775.218 18.146 775.464 15.416C775.479 15.2419 775.46 15.0665 775.407 14.8999C775.355 14.7332 775.27 14.5786 775.158 14.4448C775.045 14.3111 774.907 14.2008 774.752 14.1203C774.597 14.0399 774.428 13.9908 774.254 13.976C771.317 13.7283 768.375 14.4007 765.838 15.9C766.374 13.8523 766.333 11.6961 765.719 9.67044C765.104 7.64479 763.939 5.82884 762.356 4.42396ZM761.5 28.856C759.789 26.4831 757.392 24.6919 754.632 23.724L754.562 23.672C752.16 22.04 750.128 19 749.614 15.932C752.624 15.8534 755.558 16.8873 757.854 18.836C759.372 20.122 759.79 21.296 760.164 22.352C760.3 22.732 760.43 23.098 760.604 23.446C760.687 23.6124 760.814 23.7524 760.972 23.8502C761.131 23.9481 761.313 23.9999 761.499 23.9999C761.685 23.9999 761.867 23.9481 762.025 23.8502C762.183 23.7524 762.311 23.6124 762.394 23.446C762.568 23.098 762.698 22.732 762.834 22.35C763.208 21.298 763.626 20.122 765.146 18.836C767.441 16.887 770.374 15.8524 773.384 15.93C772.87 19 770.838 22.038 768.436 23.672L768.366 23.724C765.606 24.6923 763.21 26.4834 761.5 28.856ZM760.216 34C757.657 33.9992 755.183 33.0851 753.239 31.4223C751.294 29.7595 750.008 27.4573 749.61 24.93C751.843 24.8727 754.05 25.4268 755.992 26.5326C757.933 27.6384 759.536 29.2537 760.626 31.204C760.712 31.3593 760.839 31.4887 760.993 31.5787C761.146 31.6688 761.321 31.7162 761.499 31.7162C761.677 31.7162 761.851 31.6688 762.005 31.5787C762.158 31.4887 762.285 31.3593 762.372 31.204C763.462 29.2537 765.064 27.6384 767.006 26.5326C768.947 25.4268 771.154 24.8727 773.388 24.93C772.99 27.4576 771.703 29.7601 769.758 31.423C767.813 33.0858 765.338 33.9996 762.78 34H760.216ZM761.498 19.632C759.763 17.8601 758.791 15.4789 758.791 12.999C758.791 10.519 759.763 8.13778 761.498 6.36596C763.233 8.13778 764.205 10.519 764.205 12.999C764.205 15.4789 763.233 17.8601 761.498 19.632Z" fill="#C54E2C"/>
<path d="M837.324 18.694C837.238 15.176 837.804 11.176 840.182 8.798C841.568 7.412 843.502 6.644 845.61 6.278C847.714 5.91 849.908 5.958 851.712 6.132C852.653 6.21451 853.536 6.62625 854.204 7.29487C854.872 7.9635 855.284 8.84624 855.366 9.788C855.54 11.594 855.586 13.788 855.222 15.892C854.856 18.002 854.088 19.936 852.702 21.322C850.322 23.702 846.322 24.268 842.804 24.182C842.082 24.1633 841.381 24.4239 840.847 24.9094C840.313 25.395 839.987 26.068 839.938 26.788C839.742 29.73 839.154 33.128 837.714 35.83C837.648 35.952 837.59 35.982 837.57 35.99C837.527 36.0062 837.481 36.0077 837.438 35.994C837.308 35.96 837.112 35.818 837.052 35.504C836.771 33.9647 836.412 32.4407 835.976 30.938C835.772 30.2363 835.521 29.5494 835.224 28.882C834.952 28.288 834.62 27.71 834.206 27.296C833.792 26.882 833.216 26.55 832.622 26.278C831.954 25.9799 831.266 25.728 830.564 25.524C829.061 25.0866 827.537 24.7261 825.998 24.444C825.684 24.384 825.542 24.188 825.508 24.058C825.494 24.0148 825.495 23.9683 825.512 23.926C825.52 23.906 825.552 23.846 825.672 23.782C828.376 22.342 831.772 21.756 834.716 21.562C836.216 21.462 837.36 20.182 837.324 18.694ZM838.768 7.384C835.768 10.386 835.236 15.144 835.324 18.744C835.329 18.9496 835.256 19.1495 835.118 19.3022C834.98 19.4549 834.789 19.5487 834.584 19.564C831.532 19.768 827.804 20.38 824.732 22.016C823.704 22.566 823.326 23.61 823.572 24.562C823.812 25.47 824.582 26.212 825.628 26.408C827.096 26.6772 828.55 27.021 829.984 27.438C830.672 27.646 831.288 27.868 831.788 28.098C832.306 28.334 832.628 28.548 832.792 28.712C832.956 28.876 833.168 29.198 833.404 29.714C833.634 30.214 833.854 30.83 834.064 31.52C834.48 32.896 834.826 34.488 835.088 35.874C835.284 36.92 836.026 37.694 836.932 37.93C837.886 38.18 838.93 37.802 839.478 36.77C841.114 33.702 841.728 29.974 841.934 26.922C841.949 26.7169 842.043 26.5256 842.195 26.3878C842.348 26.25 842.548 26.1763 842.754 26.182C846.354 26.27 851.114 25.742 854.114 22.738C855.898 20.954 856.786 18.574 857.192 16.236C857.6 13.89 857.54 11.502 857.358 9.596C857.231 8.19188 856.616 6.87664 855.619 5.87957C854.623 4.88251 853.308 4.26688 851.904 4.14C849.998 3.958 847.61 3.9 845.268 4.306C842.928 4.712 840.55 5.6 838.768 7.384ZM848.002 8.998C848.399 8.998 848.781 9.15604 849.062 9.43734C849.344 9.71865 849.502 10.1002 849.502 10.498C849.502 10.8958 849.344 11.2774 849.062 11.5587C848.781 11.84 848.399 11.998 848.002 11.998C847.604 11.998 847.222 11.84 846.941 11.5587C846.66 11.2774 846.502 10.8958 846.502 10.498C846.502 10.1002 846.66 9.71865 846.941 9.43734C847.222 9.15604 847.604 8.998 848.002 8.998Z" fill="#EFBF43"/>
<path d="M937.208 5.70801C937.396 5.5205 937.502 5.26608 937.502 5.00071C937.502 4.73535 937.397 4.48078 937.209 4.29301C937.022 4.10523 936.767 3.99964 936.502 3.99945C936.237 3.99926 935.982 4.1045 935.794 4.29201L929.5 10.584V5.00001C929.5 4.73479 929.395 4.48044 929.208 4.2929C929.02 4.10536 928.766 4.00001 928.5 4.00001C928.235 4.00001 927.981 4.10536 927.793 4.2929C927.606 4.48044 927.5 4.73479 927.5 5.00001V10.754C924.344 9.18201 920.32 10.074 918.22 13.166L906.046 31.058C905.19 32.318 905.354 33.998 906.438 35.072C907.538 36.16 909.268 36.31 910.544 35.428L928.404 23.06C929.822 22.0862 930.84 20.6336 931.272 18.9692C931.704 17.3047 931.521 15.5402 930.756 14H936.5C936.766 14 937.02 13.8946 937.208 13.7071C937.395 13.5196 937.5 13.2652 937.5 13C937.5 12.7348 937.395 12.4804 937.208 12.2929C937.02 12.1054 936.766 12 936.5 12H930.914L937.208 5.70801ZM919.888 14.276C921.732 11.566 925.618 11.194 927.952 13.504C928.494 14.0378 928.91 14.6847 929.173 15.3983C929.435 16.1119 929.536 16.8746 929.469 17.6319C929.402 18.3892 929.169 19.1223 928.786 19.7789C928.402 20.4355 927.879 20.9993 927.252 21.43L909.392 33.798C909.162 33.9589 908.882 34.0338 908.602 34.0096C908.323 33.9855 908.06 33.8639 907.86 33.666C907.665 33.4733 907.543 33.2179 907.516 32.9445C907.489 32.6711 907.56 32.3969 907.714 32.17L919.888 14.276Z" fill="#94B38A"/>
<path d="M1016.5 16.5625H1014.9C1014.65 13.1777 1013.13 10.0122 1010.65 7.70177C1008.16 5.39132 1004.89 4.10712 1001.5 4.10712C998.106 4.10712 994.838 5.39132 992.352 7.70177C989.866 10.0122 988.346 13.1777 988.098 16.5625H986.5C986.251 16.5625 986.013 16.6613 985.837 16.8371C985.661 17.0129 985.562 17.2514 985.562 17.5C985.568 20.4476 986.388 23.3364 987.932 25.8472C989.476 28.3581 991.684 30.3933 994.312 31.7281V32.5C994.312 33.0802 994.543 33.6366 994.953 34.0468C995.363 34.457 995.92 34.6875 996.5 34.6875H1006.5C1007.08 34.6875 1007.64 34.457 1008.05 34.0468C1008.46 33.6366 1008.69 33.0802 1008.69 32.5V31.7281C1011.32 30.3933 1013.52 28.3581 1015.07 25.8472C1016.61 23.3364 1017.43 20.4476 1017.44 17.5C1017.44 17.2514 1017.34 17.0129 1017.16 16.8371C1016.99 16.6613 1016.75 16.5625 1016.5 16.5625ZM1008.73 8.48283C1009.18 8.84609 1009.6 9.24305 1010 9.67032C1008.26 10.2121 1006.65 11.1026 1005.26 12.2875C1003.88 13.4724 1002.75 14.927 1001.94 16.5625H996.709C997.448 14.2109 998.916 12.1556 1000.9 10.6947C1002.89 9.23379 1005.29 8.44318 1007.75 8.43751C1008.07 8.43751 1008.4 8.4547 1008.73 8.48283ZM1011.23 11.2719C1012.26 12.8615 1012.87 14.6788 1013.02 16.5625H1004.07C1004.86 15.2508 1005.9 14.1077 1007.12 13.1995C1008.35 12.2913 1009.75 11.6361 1011.23 11.2719ZM1001.5 5.93751C1002.93 5.93525 1004.35 6.2002 1005.69 6.71876C1003.11 7.12584 1000.7 8.27263 998.764 10.02C996.824 11.7673 995.433 14.0401 994.759 16.5625H989.978C990.217 13.6694 991.534 10.9716 993.668 9.00367C995.802 7.03576 998.597 5.9414 1001.5 5.93751ZM1007.36 30.2875C1007.2 30.3624 1007.06 30.4826 1006.96 30.6338C1006.86 30.7851 1006.81 30.961 1006.81 31.1406V32.5C1006.81 32.5829 1006.78 32.6624 1006.72 32.721C1006.66 32.7796 1006.58 32.8125 1006.5 32.8125H996.5C996.417 32.8125 996.338 32.7796 996.279 32.721C996.22 32.6624 996.188 32.5829 996.188 32.5V31.1406C996.188 30.961 996.136 30.7851 996.039 30.6338C995.942 30.4826 995.804 30.3624 995.641 30.2875C993.341 29.2269 991.369 27.5672 989.931 25.4823C988.493 23.3974 987.643 20.9641 987.469 18.4375H1015.53C1015.36 20.9641 1014.51 23.3974 1013.07 25.4823C1011.63 27.5672 1009.66 29.2269 1007.36 30.2875Z" fill="#C54E2C"/>
<path d="M1081.63 19.16C1081.76 19.1805 1081.89 19.1746 1082.02 19.1424C1082.15 19.1103 1082.27 19.0527 1082.38 18.9729C1082.49 18.8932 1082.58 18.7929 1082.64 18.6781C1082.71 18.5632 1082.76 18.436 1082.77 18.304C1082.79 18.172 1082.78 18.0377 1082.75 17.9092C1082.71 17.7807 1082.65 17.6605 1082.57 17.5556C1082.49 17.4507 1082.39 17.3633 1082.27 17.2984C1082.15 17.2336 1082.02 17.1927 1081.89 17.178C1080.01 16.928 1078.33 18.356 1078.33 20.44C1078.33 20.7052 1078.44 20.9596 1078.63 21.1471C1078.81 21.3347 1079.07 21.44 1079.33 21.44C1079.6 21.44 1079.85 21.3347 1080.04 21.1471C1080.23 20.9596 1080.33 20.7052 1080.33 20.44C1080.33 19.526 1080.99 19.074 1081.63 19.16ZM1082.32 29.93C1084.7 29.93 1086.99 28.9829 1088.67 27.2969C1090.36 25.611 1091.31 23.3243 1091.31 20.94C1091.31 18.5557 1090.36 16.2691 1088.67 14.5831C1086.99 12.8972 1084.7 11.95 1082.32 11.95C1079.93 11.95 1077.65 12.8972 1075.96 14.5831C1074.27 16.2691 1073.33 18.5557 1073.33 20.94C1073.33 23.3243 1074.27 25.611 1075.96 27.2969C1077.65 28.9829 1079.93 29.93 1082.32 29.93ZM1082.32 27.93C1080.46 27.93 1078.68 27.1936 1077.37 25.8827C1076.06 24.5718 1075.33 22.7939 1075.33 20.94C1075.33 19.0862 1076.06 17.3082 1077.37 15.9973C1078.68 14.6865 1080.46 13.95 1082.32 13.95C1084.17 13.95 1085.95 14.6865 1087.26 15.9973C1088.57 17.3082 1089.31 19.0862 1089.31 20.94C1089.31 22.7939 1088.57 24.5718 1087.26 25.8827C1085.95 27.1936 1084.17 27.93 1082.32 27.93ZM1084.75 4.15001C1086.84 4.28601 1088.8 4.90801 1090.21 5.79201C1093.42 7.82201 1094.81 10.054 1095.61 11.452C1096.38 12.808 1097.92 15.818 1097.7 19.1C1097.64 19.9841 1097.52 20.8634 1097.35 21.732L1097.27 22.16C1097.16 22.808 1097.09 23.472 1097.21 24.916C1097.35 26.618 1097 28.482 1096.28 30.136C1095.56 31.786 1094.43 33.31 1092.93 34.25C1089.8 36.206 1086.03 36.63 1082.49 35.216C1080.87 34.57 1080.33 34.416 1079.71 34.38C1079.28 34.3641 1078.85 34.3681 1078.42 34.392H1078.41C1077.83 34.416 1077.08 34.444 1076.05 34.444C1071.5 34.444 1068.48 31.724 1066.94 28.756C1064.67 24.404 1064.74 17.816 1069.71 13.89C1071.23 12.69 1071.68 12.29 1072.2 11.436C1073.04 10.032 1073.84 8.93201 1074.81 7.98401C1075.78 7.03201 1076.88 6.26601 1078.29 5.48801C1080.35 4.35601 1082.65 4.01201 1084.75 4.14801M1084.62 6.14401C1082.82 6.02401 1080.91 6.32801 1079.26 7.24001C1077.95 7.96001 1077.01 8.62401 1076.21 9.41001C1075.4 10.198 1074.7 11.142 1073.91 12.462C1073.19 13.668 1072.46 14.268 1070.95 15.456C1066.93 18.63 1066.76 24.076 1068.71 27.832C1070 30.312 1072.43 32.442 1076.05 32.442C1077.05 32.442 1077.76 32.414 1078.34 32.392H1078.37C1078.93 32.372 1079.39 32.352 1079.84 32.382C1080.81 32.442 1081.62 32.712 1083.23 33.358C1086.15 34.526 1089.26 34.184 1091.87 32.552C1092.94 31.88 1093.85 30.722 1094.45 29.334C1095.05 27.95 1095.32 26.418 1095.21 25.078C1095.08 23.48 1095.15 22.646 1095.3 21.814L1095.39 21.332C1095.5 20.726 1095.63 20.082 1095.7 18.964C1095.88 16.31 1094.62 13.744 1093.87 12.444C1093.15 11.188 1091.96 9.26401 1089.14 7.48201C1088.06 6.80001 1086.43 6.26401 1084.62 6.14401Z" fill="#EFBF43"/>
<path d="M1153.26 10.3217C1153.36 10.2731 1153.47 10.2444 1153.58 10.2371C1153.68 10.2298 1153.79 10.2441 1153.9 10.2791C1154 10.3142 1154.1 10.3693 1154.18 10.4414C1154.26 10.5135 1154.33 10.6011 1154.38 10.6992L1155.04 12.0359L1156.38 10.5942C1156.53 10.4326 1156.74 10.3374 1156.96 10.3296C1157.18 10.3218 1157.4 10.402 1157.56 10.5525C1157.89 10.8675 1157.91 11.395 1157.6 11.7317L1155.83 13.6342L1156.5 14.9892L1157.6 13.9784C1157.69 13.9047 1157.78 13.8477 1157.88 13.8106C1157.99 13.7736 1158.1 13.7571 1158.21 13.7623C1158.31 13.7675 1158.42 13.7942 1158.52 13.8408C1158.62 13.8875 1158.71 13.9532 1158.78 14.0342C1158.86 14.1152 1158.91 14.21 1158.95 14.3132C1158.99 14.4163 1159 14.5258 1159 14.6354C1158.99 14.7449 1158.97 14.8524 1158.92 14.9516C1158.87 15.0507 1158.81 15.1397 1158.73 15.2134L1157.26 16.545L1158.14 18.3275C1158.24 18.5257 1158.26 18.7547 1158.19 18.9642C1158.12 19.1737 1157.97 19.3465 1157.77 19.4446C1157.57 19.5428 1157.34 19.5582 1157.13 19.4874C1156.92 19.4167 1156.75 19.2657 1156.65 19.0675L1155.74 17.2184L1154.1 17.55C1153.88 17.5939 1153.66 17.5498 1153.47 17.4274C1153.29 17.3051 1153.16 17.1145 1153.12 16.8975C1153.07 16.6806 1153.12 16.4551 1153.24 16.2707C1153.36 16.0863 1153.55 15.9581 1153.77 15.9142L1154.97 15.6709L1154.31 14.3292L1151.78 14.7109C1151.56 14.7437 1151.34 14.6882 1151.16 14.5567C1150.98 14.4252 1150.86 14.2284 1150.83 14.0096C1150.8 13.7908 1150.85 13.5679 1150.98 13.39C1151.11 13.2121 1151.31 13.0937 1151.53 13.0609L1153.53 12.7584L1152.88 11.4392C1152.84 11.3411 1152.81 11.2343 1152.8 11.125C1152.79 11.0157 1152.81 10.906 1152.84 10.8022C1152.88 10.6984 1152.93 10.6025 1153 10.5201C1153.08 10.4376 1153.16 10.3702 1153.26 10.3217ZM1172.09 17.7075C1172.2 17.6962 1172.31 17.7065 1172.42 17.7377C1172.52 17.769 1172.62 17.8206 1172.71 17.8896C1172.79 17.9586 1172.86 18.0437 1172.91 18.14C1172.97 18.2364 1173 18.342 1173.01 18.4509C1173.18 20.04 1172.48 21.5425 1171.15 22.4375C1170.97 22.5513 1170.75 22.5895 1170.54 22.5442C1170.33 22.499 1170.14 22.3738 1170.02 22.1948C1169.9 22.0159 1169.85 21.7971 1169.89 21.5845C1169.93 21.3718 1170.05 21.1818 1170.22 21.0542C1170.61 20.7928 1170.93 20.4275 1171.13 19.9987C1171.33 19.5699 1171.41 19.0942 1171.35 18.6242C1171.34 18.5152 1171.35 18.4051 1171.38 18.3C1171.41 18.1949 1171.46 18.097 1171.53 18.0119C1171.6 17.9267 1171.69 17.856 1171.78 17.8038C1171.88 17.7516 1171.99 17.7189 1172.09 17.7075Z" fill="#94B38A"/>
<path fill-rule="evenodd" clip-rule="evenodd" d="M1149.92 34.9992C1152.39 34.8742 1153.94 34.1875 1154.89 33.1725C1155.23 33.6508 1155.81 33.9308 1156.44 33.8325C1159.75 33.3158 1167.13 31.9558 1175.43 29.0875C1175.74 28.9889 1176.01 28.7936 1176.21 28.5299C1176.4 28.2661 1176.5 27.9477 1176.5 27.6208C1176.5 27.294 1176.4 26.9756 1176.21 26.7118C1176.01 26.4481 1175.74 26.2528 1175.43 26.1542C1174.49 25.8297 1173.56 25.5239 1172.65 25.2367C1174.3 24.3642 1175.57 22.9 1176.07 21.0417C1177.19 16.8542 1174.25 13.2108 1170.43 14.37C1170.16 12.4483 1170.78 10.6783 1172.42 9.73251L1171.59 8.28751C1169.56 9.45668 1168.71 11.4575 1168.7 13.5067C1167.27 12.4092 1165.53 12.3675 1164.05 13.14C1164.05 12.8926 1164.01 12.6467 1163.95 12.4075C1163.7 11.4567 1163.02 10.7775 1162.08 10.3867C1161.89 9.50668 1161.45 8.43835 1160.62 7.64168C1159.65 6.72001 1158.26 6.26168 1156.45 6.70668C1156.01 6.09857 1155.41 5.61853 1154.72 5.31501C1153.61 4.83585 1152.21 4.84585 1150.63 5.75335C1148.99 6.52418 1148.19 7.65835 1147.97 8.84751C1147.82 9.65585 1147.95 10.4225 1148.17 11.0275C1146.77 12.2533 1146.35 13.6533 1146.55 14.9725C1146.72 16.1133 1147.34 17.0883 1147.95 17.75C1147.74 18.7392 1147.91 19.6842 1148.54 20.4383C1148.7 20.6322 1148.89 20.8053 1149.1 20.9575C1149.09 20.9913 1149.09 21.0252 1149.09 21.0592C1149.11 22.6075 1149.2 23.8317 1149.52 24.7833C1148.49 25.1742 1147.53 25.9683 1146.65 27.1667C1146.55 27.2984 1146.5 27.4577 1146.5 27.6213C1146.5 27.7848 1146.55 27.9441 1146.65 28.0758C1147.52 29.2642 1148.48 30.0558 1149.49 30.4492C1149.22 31.3725 1149.12 32.5875 1149.09 34.1808C1149.09 34.2902 1149.11 34.3988 1149.15 34.5002C1149.19 34.6015 1149.25 34.6934 1149.33 34.7701C1149.41 34.8467 1149.5 34.9066 1149.6 34.946C1149.71 34.9855 1149.81 35.0035 1149.92 34.9992ZM1156.43 27.6208C1156.43 28.4792 1156.4 29.3375 1156.26 30.15V32.1717C1157.07 32.0442 1158.12 31.8675 1159.36 31.6308V28.5458H1161.02V31.3C1163.86 30.7137 1166.68 30.0205 1169.46 29.2217V27.6217H1171.13V28.73C1172.25 28.3883 1173.39 28.02 1174.56 27.6217C1172.96 27.0748 1171.35 26.5664 1169.73 26.0967L1169.64 26.105L1166.89 25.315C1166.46 25.2022 1166.03 25.0939 1165.62 24.99V28.5458H1163.95V24.5867C1161.41 23.9879 1158.84 23.482 1156.26 23.07V25.0917C1156.4 25.9042 1156.43 26.7625 1156.43 27.6208ZM1154.6 30.0042V25.2375C1154.48 24.6042 1154.29 24.0683 1154.01 23.6267C1153.57 22.9525 1152.73 22.2517 1150.78 21.9933C1150.82 23.0125 1150.92 23.7267 1151.1 24.2542L1151.6 25.7725L1150.11 26.3425C1149.59 26.5408 1149.02 26.9358 1148.42 27.6208C1149.01 28.2992 1149.58 28.6933 1150.09 28.8933L1151.52 29.4483L1151.09 30.9192C1150.93 31.46 1150.83 32.2008 1150.79 33.2475C1152.73 32.9892 1153.57 32.2892 1154.01 31.6158C1154.29 31.1742 1154.48 30.6383 1154.6 30.005M1155.39 21.6133C1154.43 20.8733 1153.29 20.2967 1151.9 20.1758C1150.77 20.0775 1150.12 19.7342 1149.81 19.365C1149.54 19.0375 1149.41 18.5425 1149.68 17.7758L1149.86 17.2508L1149.44 16.8808C1148.91 16.4075 1148.33 15.595 1148.2 14.7217C1148.08 13.9417 1148.29 12.9583 1149.67 11.9575L1150.27 11.5267L1149.92 10.8808C1149.69 10.47 1149.49 9.80585 1149.61 9.15085C1149.72 8.55418 1150.12 7.82751 1151.37 7.25251L1151.4 7.23585L1151.44 7.21585C1152.62 6.52418 1153.48 6.59751 1154.06 6.84918C1154.69 7.12001 1155.14 7.65751 1155.33 8.05751L1155.66 8.71585L1156.35 8.47668C1157.96 7.91835 1158.89 8.30501 1159.47 8.85085C1160.11 9.46085 1160.43 10.4075 1160.52 11.1117L1160.59 11.6617L1161.12 11.8142C1161.9 12.0367 1162.23 12.4267 1162.34 12.84C1162.47 13.3058 1162.37 14.0342 1161.81 15.0133C1161.38 15.7552 1161.11 16.5776 1161.02 17.4283C1160.76 18.7392 1160.91 20.06 1161.41 21.2633C1161.48 21.5592 1161.56 21.845 1161.63 22.1167L1161.66 22.2233C1161.68 22.2756 1161.69 22.3272 1161.7 22.3783C1159.49 21.915 1157.68 21.6033 1156.44 21.41C1156.08 21.352 1155.7 21.4239 1155.39 21.6133ZM1169.88 24.405C1168.21 23.9281 1166.54 23.4885 1164.85 23.0867C1164.04 22.4725 1163.4 21.6605 1163 20.7283C1162.75 19.69 1162.57 18.6775 1162.67 17.7075C1162.68 17.6258 1162.7 17.5442 1162.72 17.4625C1163.19 15.7408 1164.3 14.7183 1165.37 14.3983C1166.36 14.1008 1167.5 14.3375 1168.43 15.6017L1169.22 16.6767L1170.44 16.1417C1171.88 15.5117 1172.99 15.8808 1173.7 16.6342C1174.46 17.445 1174.92 18.8883 1174.46 20.6108C1173.93 22.5925 1172.12 24.0858 1169.88 24.405Z" fill="#94B38A"/>
<path d="M1235.95 16.684C1236.03 16.9354 1236.01 17.2097 1235.9 17.4467C1235.78 17.6837 1235.57 17.864 1235.32 17.948C1235.01 18.0451 1234.73 18.202 1234.48 18.4096C1234.23 18.6173 1234.03 18.8716 1233.88 19.158C1233.51 19.856 1233.26 21.004 1233.49 22.878C1233.53 23.1413 1233.45 23.4069 1233.29 23.6162C1233.13 23.8254 1232.89 23.9614 1232.62 23.994C1232.36 24.0266 1232.1 23.9533 1231.89 23.7901C1231.68 23.6269 1231.54 23.3873 1231.51 23.124C1231.24 20.998 1231.49 19.396 1232.12 18.218C1232.76 17.018 1233.73 16.368 1234.68 16.052C1234.81 16.0103 1234.94 15.9935 1235.07 16.0027C1235.2 16.0119 1235.33 16.0469 1235.45 16.1056C1235.57 16.1643 1235.67 16.2456 1235.76 16.3448C1235.84 16.4441 1235.91 16.5593 1235.95 16.684ZM1245.82 5.94798C1245.95 5.90919 1246.07 5.84514 1246.17 5.7596C1246.27 5.67407 1246.36 5.56879 1246.42 5.45C1246.48 5.3312 1246.52 5.20131 1246.53 5.06799C1246.54 4.93468 1246.52 4.80065 1246.48 4.67384C1246.43 4.54703 1246.37 4.43001 1246.28 4.3297C1246.19 4.2294 1246.08 4.14784 1245.96 4.08987C1245.84 4.03189 1245.71 3.99866 1245.58 3.99215C1245.44 3.98564 1245.31 4.00599 1245.18 4.05198C1243.31 4.67598 1242.14 6.21598 1241.45 7.86598C1241.36 8.08884 1241.27 8.31498 1241.2 8.54398C1240.82 7.83428 1240.34 7.18502 1239.78 6.61798C1239.01 5.84855 1238.09 5.24418 1237.08 4.84183C1236.07 4.43948 1234.98 4.24762 1233.9 4.27798C1232.74 4.30998 1231.81 5.23798 1231.78 6.39598C1231.75 7.49816 1231.95 8.59476 1232.36 9.61695C1232.77 10.6391 1233.39 11.5649 1234.18 12.336C1232.5 12.6993 1230.98 13.5942 1229.85 14.8882C1228.72 16.1821 1228.03 17.8063 1227.9 19.52L1227.88 19.668C1227.62 22.9624 1228.32 26.2623 1229.9 29.164L1230.62 30.48C1230.64 30.5146 1230.66 30.548 1230.69 30.58L1232.69 33.384C1233.14 34.0188 1233.73 34.5472 1234.41 34.9325C1235.08 35.3179 1235.84 35.5508 1236.62 35.6151C1237.39 35.6795 1238.18 35.5737 1238.91 35.3051C1239.64 35.0365 1240.3 34.6116 1240.86 34.06C1240.94 33.9753 1241.04 33.908 1241.15 33.8622C1241.26 33.8163 1241.38 33.7927 1241.5 33.7927C1241.62 33.7927 1241.74 33.8163 1241.85 33.8622C1241.96 33.908 1242.06 33.9753 1242.15 34.06C1242.7 34.6116 1243.36 35.0365 1244.1 35.3051C1244.83 35.5737 1245.61 35.6795 1246.39 35.6151C1247.16 35.5508 1247.92 35.3179 1248.6 34.9325C1249.27 34.5472 1249.86 34.0188 1250.31 33.384L1252.31 30.582L1252.38 30.48L1253.1 29.164C1254.68 26.2623 1255.38 22.9624 1255.12 19.668L1255.11 19.52C1255.02 18.4155 1254.7 17.3415 1254.18 16.366C1253.65 15.3905 1252.93 14.5347 1252.05 13.853C1251.18 13.1712 1250.18 12.6783 1249.1 12.4054C1248.03 12.1326 1246.91 12.0858 1245.82 12.268L1242.5 12.82C1242.52 11.458 1242.76 9.92598 1243.3 8.63398C1243.86 7.28398 1244.69 6.32398 1245.82 5.94798M1238.94 12.56L1238.63 12.508C1237.46 12.2796 1236.38 11.7058 1235.53 10.86C1234.96 10.2828 1234.5 9.59404 1234.2 8.83577C1233.9 8.07751 1233.76 7.26569 1233.78 6.44998C1233.78 6.4043 1233.8 6.36091 1233.83 6.3286C1233.86 6.29629 1233.91 6.27747 1233.95 6.27598C1234.77 6.25334 1235.58 6.39739 1236.34 6.69933C1237.1 7.00126 1237.79 7.45472 1238.36 8.03198C1239.58 9.24598 1240.16 10.848 1240.12 12.442C1240.11 12.4876 1240.1 12.531 1240.06 12.5634C1240.03 12.5957 1239.99 12.6145 1239.94 12.616C1239.61 12.6254 1239.27 12.6067 1238.94 12.56ZM1238.28 14.478L1238.63 14.536L1240.19 14.796C1241.06 14.9411 1241.95 14.9411 1242.82 14.796L1246.14 14.24C1246.96 14.1032 1247.8 14.1383 1248.61 14.343C1249.41 14.5476 1250.17 14.9174 1250.82 15.4288C1251.48 15.9403 1252.02 16.5823 1252.41 17.3141C1252.81 18.0459 1253.05 18.8515 1253.11 19.68L1253.12 19.828C1253.36 22.7353 1252.74 25.6475 1251.34 28.208L1250.65 29.468L1248.69 32.22C1248.4 32.6185 1248.03 32.9503 1247.61 33.1923C1247.18 33.4342 1246.71 33.5806 1246.22 33.6211C1245.73 33.6617 1245.24 33.5954 1244.78 33.427C1244.32 33.2586 1243.91 32.9921 1243.56 32.646C1243.29 32.3753 1242.97 32.1606 1242.62 32.0141C1242.26 31.8676 1241.88 31.7922 1241.5 31.7922C1241.12 31.7922 1240.74 31.8676 1240.39 32.0141C1240.03 32.1606 1239.71 32.3753 1239.44 32.646C1239.09 32.9917 1238.68 33.258 1238.22 33.4262C1237.76 33.5944 1237.27 33.6605 1236.78 33.62C1236.29 33.5794 1235.82 33.4332 1235.39 33.1914C1234.97 32.9497 1234.6 32.6182 1234.32 32.22L1232.35 29.468L1231.66 28.208C1230.27 25.6475 1229.65 22.7353 1229.88 19.828L1229.89 19.68C1229.96 18.8517 1230.19 18.0462 1230.59 17.3146C1230.98 16.583 1231.52 15.9411 1232.18 15.4297C1232.83 14.9183 1233.59 14.5484 1234.39 14.3437C1235.2 14.1389 1236.04 14.1036 1236.86 14.24L1238.28 14.478Z" fill="#C54E2C"/>
<path d="M1322.36 4.42396C1322.12 4.21408 1321.81 4.09814 1321.5 4.09814C1321.18 4.09814 1320.88 4.21408 1320.64 4.42396C1319.06 5.82861 1317.89 7.64446 1317.28 9.67013C1316.67 11.6958 1316.62 13.8521 1317.16 15.9C1314.62 14.4003 1311.68 13.7279 1308.74 13.976C1308.57 13.9903 1308.4 14.039 1308.24 14.1193C1308.09 14.1995 1307.95 14.3098 1307.84 14.4436C1307.72 14.5775 1307.64 14.7323 1307.59 14.8992C1307.53 15.0661 1307.51 15.2417 1307.53 15.416C1307.78 18.146 1309.06 20.856 1310.83 22.956C1310.14 22.9105 1309.44 22.9172 1308.74 22.976C1308.57 22.9903 1308.4 23.039 1308.24 23.1193C1308.09 23.1995 1307.95 23.3098 1307.84 23.4436C1307.72 23.5775 1307.64 23.7323 1307.59 23.8992C1307.53 24.0661 1307.51 24.2417 1307.53 24.416C1307.82 27.5813 1309.28 30.5246 1311.63 32.6678C1313.97 34.8111 1317.04 35.9996 1320.22 36H1322.78C1325.96 35.9991 1329.02 34.8107 1331.37 32.6679C1333.72 30.5251 1335.18 27.5826 1335.47 24.418C1335.48 24.2435 1335.46 24.0677 1335.41 23.9006C1335.36 23.7335 1335.27 23.5784 1335.16 23.4443C1335.05 23.3103 1334.91 23.1998 1334.75 23.1195C1334.6 23.0391 1334.43 22.9903 1334.25 22.976C1333.56 22.9172 1332.86 22.9105 1332.16 22.956C1333.94 20.856 1335.22 18.146 1335.46 15.416C1335.48 15.2419 1335.46 15.0665 1335.41 14.8999C1335.35 14.7332 1335.27 14.5786 1335.16 14.4448C1335.05 14.3111 1334.91 14.2008 1334.75 14.1203C1334.6 14.0399 1334.43 13.9908 1334.25 13.976C1331.32 13.7283 1328.38 14.4007 1325.84 15.9C1326.37 13.8523 1326.33 11.6961 1325.72 9.67044C1325.1 7.64479 1323.94 5.82884 1322.36 4.42396ZM1321.5 28.856C1319.79 26.4831 1317.39 24.6919 1314.63 23.724L1314.56 23.672C1312.16 22.04 1310.13 19 1309.61 15.932C1312.62 15.8534 1315.56 16.8873 1317.85 18.836C1319.37 20.122 1319.79 21.296 1320.16 22.352C1320.3 22.732 1320.43 23.098 1320.6 23.446C1320.69 23.6124 1320.81 23.7524 1320.97 23.8502C1321.13 23.9481 1321.31 23.9999 1321.5 23.9999C1321.68 23.9999 1321.87 23.9481 1322.02 23.8502C1322.18 23.7524 1322.31 23.6124 1322.39 23.446C1322.57 23.098 1322.7 22.732 1322.83 22.35C1323.21 21.298 1323.63 20.122 1325.15 18.836C1327.44 16.887 1330.37 15.8524 1333.38 15.93C1332.87 19 1330.84 22.038 1328.44 23.672L1328.37 23.724C1325.61 24.6923 1323.21 26.4834 1321.5 28.856ZM1320.22 34C1317.66 33.9992 1315.18 33.0851 1313.24 31.4223C1311.29 29.7595 1310.01 27.4573 1309.61 24.93C1311.84 24.8727 1314.05 25.4268 1315.99 26.5326C1317.93 27.6384 1319.54 29.2537 1320.63 31.204C1320.71 31.3593 1320.84 31.4887 1320.99 31.5787C1321.15 31.6688 1321.32 31.7162 1321.5 31.7162C1321.68 31.7162 1321.85 31.6688 1322 31.5787C1322.16 31.4887 1322.28 31.3593 1322.37 31.204C1323.46 29.2537 1325.06 27.6384 1327.01 26.5326C1328.95 25.4268 1331.15 24.8727 1333.39 24.93C1332.99 27.4576 1331.7 29.7601 1329.76 31.423C1327.81 33.0858 1325.34 33.9996 1322.78 34H1320.22ZM1321.5 19.632C1319.76 17.8601 1318.79 15.4789 1318.79 12.999C1318.79 10.519 1319.76 8.13778 1321.5 6.36596C1323.23 8.13778 1324.2 10.519 1324.2 12.999C1324.2 15.4789 1323.23 17.8601 1321.5 19.632Z" fill="#EFBF43"/>
<path d="M1397.32 18.694C1397.24 15.176 1397.8 11.176 1400.18 8.798C1401.57 7.412 1403.5 6.644 1405.61 6.278C1407.71 5.91 1409.91 5.958 1411.71 6.132C1412.65 6.21451 1413.54 6.62625 1414.2 7.29487C1414.87 7.9635 1415.28 8.84624 1415.37 9.788C1415.54 11.594 1415.59 13.788 1415.22 15.892C1414.86 18.002 1414.09 19.936 1412.7 21.322C1410.32 23.702 1406.32 24.268 1402.8 24.182C1402.08 24.1633 1401.38 24.4239 1400.85 24.9094C1400.31 25.395 1399.99 26.068 1399.94 26.788C1399.74 29.73 1399.15 33.128 1397.71 35.83C1397.65 35.952 1397.59 35.982 1397.57 35.99C1397.53 36.0062 1397.48 36.0077 1397.44 35.994C1397.31 35.96 1397.11 35.818 1397.05 35.504C1396.77 33.9647 1396.41 32.4407 1395.98 30.938C1395.77 30.2363 1395.52 29.5494 1395.22 28.882C1394.95 28.288 1394.62 27.71 1394.21 27.296C1393.79 26.882 1393.22 26.55 1392.62 26.278C1391.95 25.9799 1391.27 25.728 1390.56 25.524C1389.06 25.0866 1387.54 24.7261 1386 24.444C1385.68 24.384 1385.54 24.188 1385.51 24.058C1385.49 24.0148 1385.5 23.9683 1385.51 23.926C1385.52 23.906 1385.55 23.846 1385.67 23.782C1388.38 22.342 1391.77 21.756 1394.72 21.562C1396.22 21.462 1397.36 20.182 1397.32 18.694ZM1398.77 7.384C1395.77 10.386 1395.24 15.144 1395.32 18.744C1395.33 18.9496 1395.26 19.1495 1395.12 19.3022C1394.98 19.4549 1394.79 19.5487 1394.58 19.564C1391.53 19.768 1387.8 20.38 1384.73 22.016C1383.7 22.566 1383.33 23.61 1383.57 24.562C1383.81 25.47 1384.58 26.212 1385.63 26.408C1387.1 26.6772 1388.55 27.021 1389.98 27.438C1390.67 27.646 1391.29 27.868 1391.79 28.098C1392.31 28.334 1392.63 28.548 1392.79 28.712C1392.96 28.876 1393.17 29.198 1393.4 29.714C1393.63 30.214 1393.85 30.83 1394.06 31.52C1394.48 32.896 1394.83 34.488 1395.09 35.874C1395.28 36.92 1396.03 37.694 1396.93 37.93C1397.89 38.18 1398.93 37.802 1399.48 36.77C1401.11 33.702 1401.73 29.974 1401.93 26.922C1401.95 26.7169 1402.04 26.5256 1402.2 26.3878C1402.35 26.25 1402.55 26.1763 1402.75 26.182C1406.35 26.27 1411.11 25.742 1414.11 22.738C1415.9 20.954 1416.79 18.574 1417.19 16.236C1417.6 13.89 1417.54 11.502 1417.36 9.596C1417.23 8.19188 1416.62 6.87664 1415.62 5.87957C1414.62 4.88251 1413.31 4.26688 1411.9 4.14C1410 3.958 1407.61 3.9 1405.27 4.306C1402.93 4.712 1400.55 5.6 1398.77 7.384ZM1408 8.998C1408.4 8.998 1408.78 9.15604 1409.06 9.43734C1409.34 9.71865 1409.5 10.1002 1409.5 10.498C1409.5 10.8958 1409.34 11.2774 1409.06 11.5587C1408.78 11.84 1408.4 11.998 1408 11.998C1407.6 11.998 1407.22 11.84 1406.94 11.5587C1406.66 11.2774 1406.5 10.8958 1406.5 10.498C1406.5 10.1002 1406.66 9.71865 1406.94 9.43734C1407.22 9.15604 1407.6 8.998 1408 8.998Z" fill="#94B38A"/>
<path d="M1497.21 5.70801C1497.4 5.5205 1497.5 5.26608 1497.5 5.00071C1497.5 4.73535 1497.4 4.48078 1497.21 4.29301C1497.02 4.10523 1496.77 3.99964 1496.5 3.99945C1496.24 3.99926 1495.98 4.1045 1495.79 4.29201L1489.5 10.584V5.00001C1489.5 4.73479 1489.4 4.48044 1489.21 4.2929C1489.02 4.10536 1488.77 4.00001 1488.5 4.00001C1488.24 4.00001 1487.98 4.10536 1487.79 4.2929C1487.61 4.48044 1487.5 4.73479 1487.5 5.00001V10.754C1484.34 9.18201 1480.32 10.074 1478.22 13.166L1466.05 31.058C1465.19 32.318 1465.35 33.998 1466.44 35.072C1467.54 36.16 1469.27 36.31 1470.54 35.428L1488.4 23.06C1489.82 22.0862 1490.84 20.6336 1491.27 18.9692C1491.7 17.3047 1491.52 15.5402 1490.76 14H1496.5C1496.77 14 1497.02 13.8946 1497.21 13.7071C1497.4 13.5196 1497.5 13.2652 1497.5 13C1497.5 12.7348 1497.4 12.4804 1497.21 12.2929C1497.02 12.1054 1496.77 12 1496.5 12H1490.91L1497.21 5.70801ZM1479.89 14.276C1481.73 11.566 1485.62 11.194 1487.95 13.504C1488.49 14.0378 1488.91 14.6847 1489.17 15.3983C1489.43 16.1119 1489.54 16.8746 1489.47 17.6319C1489.4 18.3892 1489.17 19.1223 1488.79 19.7789C1488.4 20.4355 1487.88 20.9993 1487.25 21.43L1469.39 33.798C1469.16 33.9589 1468.88 34.0338 1468.6 34.0096C1468.32 33.9855 1468.06 33.8639 1467.86 33.666C1467.66 33.4733 1467.54 33.2179 1467.52 32.9445C1467.49 32.6711 1467.56 32.3969 1467.71 32.17L1479.89 14.276Z" fill="#C54E2C"/>
</svg>
