<svg width="32" height="31" viewBox="0 0 32 31" fill="none" xmlns="http://www.w3.org/2000/svg">
<path d="M5.48895 14.7744C8.303 15.108 10.8764 13.0932 11.2359 10.2753C11.5953 7.45735 8.24872 4.74122 9.46354 1C3.44371 1.83987 1.36912 6.51568 1.04194 9.0678C0.682481 11.8857 2.67491 14.4407 5.48895 14.7744Z" stroke="#94B38A" stroke-width="2" stroke-linejoin="round"/>
<path d="M8.10513 26.1838C5.06553 20.1692 4.58393 14.8569 5.15712 10.7485" stroke="#94B38A" stroke-width="2" stroke-linecap="round" stroke-linejoin="round"/>
<path d="M12.0348 22.9115C13.8187 26.2678 18.1274 27.1939 21.6572 24.9797C25.1871 22.7655 25.7443 16.6281 31.0003 14.4882C25.3905 8.74507 18.3946 10.819 15.1987 12.8241C11.6674 15.0383 10.2509 19.5551 12.0348 22.9129V22.9115Z" stroke="#94B38A" stroke-width="2" stroke-linejoin="round"/>
<path d="M5.73753 29.6999C10.1367 23.2948 15.0713 19.6617 19.6011 17.7352" stroke="#94B38A" stroke-width="2" stroke-linecap="round" stroke-linejoin="round"/>
</svg>
