<svg width="32" height="32" viewBox="0 0 32 32" fill="none" xmlns="http://www.w3.org/2000/svg">
<path d="M1 10.3691L6.28649 15.9899M1 15.9907C1 24.2799 7.71595 31 16 31C24.2841 31 31 24.2799 31 15.9907H1Z" stroke="#C54E2C" stroke-width="2" stroke-linecap="round" stroke-linejoin="round"/>
<path d="M18.826 13.9924C19.3107 13.5071 19.583 12.849 19.583 12.1629C19.583 11.4767 19.3107 10.8187 18.826 10.3334C18.8246 10.332 18.8232 10.3306 18.8218 10.3292M16.1872 10.5429C16.554 11.0001 16.7565 11.5711 16.7565 12.1629C16.7565 12.849 16.4843 13.5071 15.9995 13.9924M13.4814 10.7624C13.7479 11.1769 13.8928 11.6624 13.8928 12.1629C13.8928 12.849 13.6205 13.5071 13.1357 13.9924" stroke="#EFBF43" stroke-width="2" stroke-linecap="round" stroke-linejoin="round"/>
<path d="M18.8224 10.3293C18.3401 9.84431 18.0692 9.18788 18.0692 8.50352C18.0692 7.81718 18.3416 7.15895 18.8266 6.6736C19.3113 6.18828 19.5836 5.53022 19.5836 4.84408C19.5836 4.15794 19.3113 3.49988 18.8266 3.01456C18.5799 2.76765 18.3861 2.47307 18.2569 2.14878C18.1276 1.82448 18.0658 1.47725 18.075 1.12825M16.1878 10.543C16.1294 10.4701 16.0667 10.4002 16.0001 10.3334C15.5151 9.84809 15.2427 9.18986 15.2427 8.50352C15.2427 7.81718 15.5151 7.15895 16.0001 6.6736C16.4848 6.18828 16.7571 5.53022 16.7571 4.84408C16.7571 4.15794 16.4848 3.49988 16.0001 3.01456C15.4471 2.46205 15.2088 1.72294 15.2607 1.00006M13.482 10.7625C13.3831 10.6088 13.2675 10.4648 13.1363 10.3334C12.6514 9.84809 12.3789 9.18986 12.3789 8.50352C12.3789 7.81718 12.6514 7.15895 13.1363 6.6736C13.6211 6.18828 13.8934 5.53022 13.8934 4.84408C13.8934 4.15794 13.6211 3.49988 13.1363 3.01456C12.7113 2.58579 12.4511 2.02063 12.4017 1.4187" stroke="#EFBF43" stroke-width="2" stroke-linecap="round" stroke-linejoin="round"/>
</svg>
