<?xml version="1.0" encoding="UTF-8"?>
<svg id="Layer_1" xmlns="http://www.w3.org/2000/svg" version="1.1" xmlns:xlink="http://www.w3.org/1999/xlink" viewBox="0 0 77 56">
  <!-- Generator: Adobe Illustrator 29.8.3, SVG Export Plug-In . SVG Version: 2.1.1 Build 3)  -->
  <defs>
    <style>
      .st0 {
        opacity: .85;
      }

      .st0, .st1, .st2 {
        fill: #fffdf6;
      }

      .st0, .st1, .st3 {
        isolation: isolate;
      }

      .st4 {
        fill: url(#linear-gradient2);
      }

      .st5 {
        fill: #fff;
      }

      .st6 {
        fill: url(#linear-gradient1);
      }

      .st7 {
        fill: #fdfdfd;
      }

      .st1 {
        opacity: .75;
      }

      .st8 {
        fill: url(#radial-gradient);
      }

      .st9 {
        stroke: url(#linear-gradient6);
      }

      .st9, .st10, .st11 {
        fill: none;
        stroke-miterlimit: 10;
        stroke-width: 2px;
      }

      .st3 {
        fill: #2f4827;
        opacity: .08;
      }

      .st12 {
        fill: url(#linear-gradient4);
      }

      .st13 {
        fill: url(#linear-gradient3);
      }

      .st14 {
        display: none;
      }

      .st10 {
        stroke: #fffdf6;
      }

      .st11 {
        stroke: url(#linear-gradient5);
      }

      .st15 {
        fill: url(#linear-gradient);
      }

      .st16 {
        fill: #c54e2c;
      }
    </style>
    <linearGradient id="linear-gradient" x1="38.5" y1="-966.79" x2="38.5" y2="-95563.1" gradientTransform="translate(0 -964) scale(1 -1)" gradientUnits="userSpaceOnUse">
      <stop offset="0" stop-color="#fff7ec"/>
      <stop offset="1" stop-color="#f4e7c7"/>
    </linearGradient>
    <radialGradient id="radial-gradient" cx="-2761.49" cy="568.17" fx="-2761.49" fy="568.17" r="1" gradientTransform="translate(5060125.34 1048751.12) scale(1832.05 -1844.43)" gradientUnits="userSpaceOnUse">
      <stop offset="0" stop-color="#fff27a"/>
      <stop offset=".7" stop-color="#efbe42"/>
      <stop offset="1" stop-color="#e2a600"/>
    </radialGradient>
    <linearGradient id="linear-gradient1" x1="-54.27" y1="-150.94" x2="-54.27" y2="-12976.39" gradientTransform="matrix(1,0,0,1,0,0)" xlink:href="#linear-gradient"/>
    <linearGradient id="linear-gradient2" x1="-47.34" y1="-146.95" x2="-47.34" y2="-5836.88" gradientTransform="matrix(1,0,0,1,0,0)" xlink:href="#linear-gradient"/>
    <linearGradient id="linear-gradient3" x1="-40.15" y1="-143.45" x2="-40.15" y2="-12579.76" gradientTransform="matrix(1,0,0,1,0,0)" xlink:href="#linear-gradient"/>
    <linearGradient id="linear-gradient4" x1="-63.9" y1="-126.8" x2="-63.9" y2="-94723.11" gradientTransform="matrix(1,0,0,1,0,0)" xlink:href="#linear-gradient"/>
    <linearGradient id="linear-gradient5" x1="-66.03" y1="-58.66" x2="-66.03" y2="-5.62" gradientTransform="matrix(1,0,0,1,0,0)" xlink:href="#linear-gradient"/>
    <linearGradient id="linear-gradient6" x1="-67.62" y1="-114.25" x2="-67.62" y2="-61.21" gradientTransform="matrix(1,0,0,1,0,0)" xlink:href="#linear-gradient"/>
  </defs>
  <g class="st14">
    <path class="st15" d="M20.25,4.16c-4.79,1.45-10.29,7.69-11.41,12.81-.48,2.21-1.87,5.18-3.29,6.94-1.34,1.64-5.09,5.66-3.79,11.67,1.46,12.03,16.41,15.18,25.56,14.63,3.79-.23,7.57.25,11.15,1.5,4.36,1.53,10.45,2.34,16.69,1.41.6-.09,1.19-.22,1.77-.39,6.21-1.81,13.09-5.32,15.06-8.34,10.79-16.53-5.81-25-15.46-28-2.34-.73-4.53-1.92-6.28-3.63C43.88,6.56,33.92-.93,20.25,4.16Z"/>
    <path class="st16" d="M49.92,38.34c-1.88-.08-3.28-1.23-4.18-3.45-.67-1.67-1.01-3.72-1.01-6.14,0-.12,0-.29.02-.48.11-1.65.41-3.16.91-4.54.81-2.22,1.96-3.33,3.45-3.33.08,0,.16,0,.25.01,1.35.09,2.03.87,2.03,2.36,0,1.62-.7,3.41-2.09,5.39-.88,1.26-1.81,2.28-2.78,3.06.27,1.48.56,2.6.88,3.34.59,1.38,1.48,2.06,2.65,2.06.08,0,.16,0,.25-.02.26-.05.62-.23,1.08-.56.45-.3.79-.46,1.04-.46.11,0,.21.04.32.11.23.16.34.37.34.63-.02.41-.3.82-.87,1.25-.7.51-1.46.76-2.29.76h0ZM49.13,22.18c-.46,0-.87.21-1.22.6-.89,1.01-1.38,3.11-1.46,6.32.47-.48.94-1.04,1.41-1.69,1.3-1.77,1.95-3.27,1.95-4.49,0-.06-.02-.14-.05-.22-.12-.34-.33-.52-.62-.52h-.01ZM51.43,34.76c0-.27.02-.55.05-.84.16-1.34.59-2.52,1.27-3.56.83-1.27,1.82-1.91,2.99-1.91.31,0,.61.04.9.12,1.03.3,1.55,1.02,1.55,2.18,0,.09,0,.18,0,.27-.08,1.05-.55,1.93-1.41,2.64-.84.7-1.82,1.05-2.94,1.05-.21,0-.42-.02-.62-.06-.02.12-.02.28-.02.49,0,.45.08.8.23,1.05.21.32.64.51,1.3.56.29,0,.57-.03.86-.09.49-.12,1.07-.39,1.75-.83.44-.29.75-.43.93-.43.1,0,.21.03.32.09.25.15.38.36.38.64,0,.09-.02.2-.06.3-.21.51-.84.99-1.9,1.44-.98.42-1.84.63-2.58.63-.28,0-.54-.02-.79-.07-1.45-.3-2.18-1.52-2.18-3.68h-.02ZM55.2,30.28c-.71.48-1.27,1.38-1.68,2.72.2.05.38.07.56.07.65,0,1.21-.2,1.7-.6.54-.44.81-.96.81-1.56s-.19-.91-.57-.91c-.27,0-.55.1-.82.28ZM58.76,34.66c0-.27.02-.55.05-.84.16-1.34.59-2.54,1.27-3.57.83-1.27,1.82-1.9,2.99-1.9.5,0,.94.1,1.31.29.16-.19.37-.29.64-.29.16,0,.25.01.29.04.34.11.5.44.5,1,0,.23-.04.71-.12,1.46-.24,2.22-.36,3.6-.36,4.14,0,.36.07.7.22,1.01.22.47.51.7.87.7.07,0,.14,0,.22-.02.23-.05.57-.23,1.01-.54.43-.31.77-.47,1.03-.47.1,0,.21.04.32.11.23.16.34.36.34.62-.02.41-.33.83-.93,1.27-.71.5-1.46.75-2.26.75-.98,0-1.71-.5-2.18-1.49-.11.13-.23.27-.38.4-.77.73-1.56,1.09-2.36,1.09-.5,0-.93-.13-1.3-.39-.79-.58-1.18-1.7-1.18-3.35v-.02h.01ZM63.91,30.81s.03-.27.08-.8c-.17-.09-.35-.13-.54-.13-.14,0-.29.02-.43.06-.73.2-1.34.88-1.84,2.02-.45,1.02-.67,2.05-.67,3.08v.12c.02.95.27,1.43.73,1.43.24,0,.54-.14.89-.4.36-.26.62-.5.79-.73.1-.15.24-.58.41-1.3.31-1.34.51-2.45.59-3.35h-.01Z"/>
    <path class="st16" d="M9.1,35.1c-.04-.12-.06-.26-.06-.42,0-.14.03-.27.08-.4.14-.3.37-.46.69-.46.3,0,.58.18.86.52.09.11.17.21.25.3,1.09,1.34,2.14,2.02,3.14,2.02s1.83-.36,2.53-1.07c.69-.7,1.03-1.54,1.03-2.51,0-.84-.23-1.55-.66-2.13-.34-.48-.95-.97-1.83-1.48-.92-.54-1.47-.87-1.65-1-.41-.28-.75-.57-1.03-.87-.71-.75-1.07-1.68-1.07-2.78,0-.14,0-.29.02-.45.11-1.19.6-2.19,1.46-3,.89-.82,1.94-1.23,3.14-1.23.52,0,1.02.08,1.51.25,1.02.35,1.81.96,2.37,1.83.09.23.14.41.14.52,0,.14-.04.28-.12.42-.17.29-.42.43-.74.43-.28,0-.48-.07-.6-.22-.8-.96-1.65-1.45-2.57-1.45-.72,0-1.36.26-1.91.79-.62.59-.93,1.3-.93,2.14,0,.52.16.99.48,1.41.29.38.86.82,1.7,1.32.92.55,1.61,1,2.06,1.37,1.45,1.17,2.18,2.55,2.18,4.12,0,.35-.04.7-.11,1.05-.26,1.24-.9,2.28-1.93,3.11-1.05.84-2.21,1.27-3.5,1.27-.84,0-1.64-.22-2.43-.66-1.08-.62-1.92-1.54-2.53-2.75h.03Z"/>
    <path class="st3" d="M34.05,44.99c7.08,0,12.83-6.24,12.83-13.93s-5.74-13.93-12.83-13.93-12.83,6.24-12.83,13.93,5.74,13.93,12.83,13.93Z"/>
    <path class="st8" d="M32.34,42.69c7.23,0,13.09-5.9,13.09-13.17s-5.86-13.17-13.09-13.17-13.09,5.9-13.09,13.17,5.86,13.17,13.09,13.17Z"/>
    <path class="st0" d="M28.55,26.09c1.52,0,2.75-1.04,2.75-2.32s-1.23-2.32-2.75-2.32-2.75,1.04-2.75,2.32,1.23,2.32,2.75,2.32Z"/>
    <path class="st1" d="M26.11,27.78c.93,0,1.68-.59,1.68-1.33s-.75-1.33-1.68-1.33-1.68.59-1.68,1.33.75,1.33,1.68,1.33Z"/>
  </g>
  <g class="st14">
    <path class="st2" d="M56.91,33c.54-.44.81-.96.81-1.56s-.19-.91-.57-.91c-.27,0-.55.1-.82.28-.71.48-1.27,1.38-1.68,2.72.2.05.38.07.56.07.65,0,1.21-.2,1.7-.6Z"/>
    <path class="st2" d="M50.94,23.45c0-.06-.02-.14-.05-.22-.12-.34-.33-.52-.62-.52h-.01c-.46,0-.87.21-1.22.6-.89,1.01-1.38,3.11-1.46,6.32.47-.48.94-1.04,1.41-1.69,1.3-1.77,1.95-3.27,1.95-4.49Z"/>
    <path class="st2" d="M64.15,30.47c-.73.2-1.34.88-1.84,2.02-.45,1.02-.67,2.05-.67,3.08v.12c.02.95.27,1.43.73,1.43.24,0,.54-.14.89-.4.36-.26.62-.5.79-.73.1-.15.24-.58.41-1.3.31-1.34.51-2.45.59-3.35h-.01s.03-.27.08-.8c-.17-.09-.35-.13-.54-.13-.14,0-.29.02-.43.06Z"/>
    <path class="st2" d="M56.53,16.85c-2.34-.73-4.53-1.92-6.28-3.63C43.88,7.02,33.92-.47,20.25,4.62c-4.79,1.45-10.29,7.69-11.41,12.81-.48,2.21-1.87,5.18-3.29,6.94-1.34,1.64-5.09,5.66-3.79,11.67,1.46,12.03,16.41,15.18,25.56,14.63,3.79-.23,7.57.25,11.15,1.5,4.36,1.53,10.45,2.34,16.69,1.41.6-.09,1.19-.22,1.77-.39,6.21-1.81,13.09-5.32,15.06-8.34,10.79-16.53-5.81-25-15.46-28ZM13.07,26.63c.29.38.86.82,1.7,1.32.92.55,1.61,1,2.06,1.37,1.45,1.17,2.18,2.55,2.18,4.12,0,.35-.04.7-.11,1.05-.26,1.24-.9,2.28-1.93,3.11-1.05.84-2.21,1.27-3.5,1.27-.84,0-1.64-.22-2.43-.66-1.08-.62-1.92-1.54-2.53-2.75h.03c-.04-.12-.06-.25-.06-.41,0-.14.03-.27.08-.4.14-.3.37-.46.69-.46.3,0,.58.18.86.52.09.11.17.21.25.3,1.09,1.34,2.14,2.02,3.14,2.02s1.83-.36,2.53-1.07c.69-.7,1.03-1.54,1.03-2.51,0-.84-.23-1.55-.66-2.13-.34-.48-.95-.97-1.83-1.48-.92-.54-1.47-.87-1.65-1-.41-.28-.75-.57-1.03-.87-.71-.75-1.07-1.68-1.07-2.78,0-.14,0-.29.02-.45.11-1.19.6-2.19,1.46-3,.89-.82,1.94-1.23,3.14-1.23.52,0,1.02.08,1.51.25,1.02.35,1.81.96,2.37,1.83.09.23.14.41.14.52,0,.14-.04.28-.12.42-.17.29-.42.43-.74.43-.28,0-.48-.07-.6-.22-.8-.96-1.65-1.45-2.57-1.45-.72,0-1.36.26-1.91.79-.62.59-.93,1.3-.93,2.14,0,.52.16.99.48,1.41ZM32.34,43.15c-7.23,0-13.09-5.9-13.09-13.17s5.86-13.17,13.09-13.17,13.09,5.9,13.09,13.17-5.86,13.17-13.09,13.17ZM69.54,38.2c-.71.5-1.46.75-2.26.75-.98,0-1.71-.5-2.18-1.49-.11.13-.23.27-.38.4-.77.73-1.56,1.09-2.36,1.09-.5,0-.93-.13-1.3-.39-.5-.36-.82-.97-1-1.75-.01.05-.01.1-.03.15-.21.51-.84.99-1.9,1.44-.98.42-1.84.63-2.58.63-.28,0-.54-.02-.79-.07-.6-.12-1.07-.42-1.42-.86-.7.51-1.46.76-2.29.76h0c-1.88-.07-3.28-1.22-4.18-3.44-.67-1.67-1.01-3.72-1.01-6.14,0-.12,0-.29.02-.48.11-1.65.41-3.16.91-4.54.81-2.22,1.96-3.33,3.45-3.33.08,0,.16,0,.25.01,1.35.09,2.03.87,2.03,2.36,0,1.62-.7,3.41-2.09,5.39-.88,1.26-1.81,2.28-2.78,3.06.27,1.48.56,2.6.88,3.34.59,1.38,1.48,2.06,2.65,2.06.08,0,.16,0,.25-.02.26-.05.62-.23,1.08-.56.06-.04.11-.07.17-.1-.06-.36-.1-.75-.1-1.19h-.02s0,0,0,.01h0s0-.01,0-.01c0-.27.02-.54.05-.83.16-1.34.59-2.52,1.27-3.56.83-1.27,1.82-1.91,2.99-1.91.31,0,.61.04.9.12,1.03.3,1.55,1.02,1.55,2.18,0,.09,0,.18,0,.27-.08,1.05-.55,1.93-1.41,2.64-.84.7-1.82,1.05-2.94,1.05-.21,0-.42-.02-.62-.06-.02.12-.02.28-.02.49,0,.45.08.8.23,1.05.21.32.64.51,1.3.56.29,0,.57-.03.86-.09.49-.12,1.07-.39,1.75-.83.44-.29.75-.43.93-.43.1,0,.21.03.32.09.1.06.17.14.24.23-.04-.32-.07-.66-.07-1.04v-.02h.01c0-.27.02-.55.05-.84.16-1.34.59-2.54,1.27-3.57.83-1.27,1.82-1.9,2.99-1.9.5,0,.94.1,1.31.29.16-.19.37-.29.64-.29.16,0,.25.01.29.04.34.11.5.44.5,1,0,.23-.04.71-.12,1.46-.24,2.22-.36,3.6-.36,4.14,0,.36.07.7.22,1.01.22.47.51.7.87.7.07,0,.14,0,.22-.02.23-.05.57-.23,1.01-.54.43-.31.77-.47,1.03-.47.1,0,.21.04.32.11.23.16.34.36.34.62-.02.41-.33.83-.93,1.27Z"/>
  </g>
  <g>
    <path class="st6" d="M-52.59-157.08c0-.06-.02-.14-.05-.22-.12-.34-.33-.52-.62-.52h-.01c-.46,0-.87.21-1.22.6-.89,1.01-1.38,3.11-1.46,6.32.47-.48.94-1.04,1.41-1.69,1.3-1.77,1.95-3.27,1.95-4.49Z"/>
    <path class="st4" d="M-46.62-147.53c.54-.44.81-.96.81-1.56s-.19-.91-.57-.91c-.27,0-.55.1-.82.28-.71.48-1.27,1.38-1.68,2.72.2.05.38.07.56.07.65,0,1.21-.2,1.7-.6Z"/>
    <path class="st13" d="M-39.38-150.06c-.73.2-1.34.88-1.84,2.02-.45,1.02-.67,2.05-.67,3.08v.12c.02.95.27,1.43.73,1.43.24,0,.54-.14.89-.4.36-.26.62-.5.79-.73.1-.15.24-.58.41-1.3.31-1.34.51-2.45.59-3.35h-.01s.03-.27.08-.8c-.17-.09-.35-.13-.54-.13-.14,0-.29.02-.43.06Z"/>
    <path class="st12" d="M-45.87-163.61c-2.34-.73-4.53-1.92-6.28-3.63-6.37-6.2-16.33-13.69-30-8.6-4.79,1.45-10.29,7.69-11.41,12.81-.48,2.21-1.87,5.18-3.29,6.94-1.34,1.64-5.09,5.66-3.79,11.67,1.46,12.03,16.41,15.18,25.56,14.63,3.79-.23,7.57.25,11.15,1.5,4.36,1.53,10.45,2.34,16.69,1.41.6-.09,1.19-.22,1.77-.39,6.21-1.81,13.09-5.32,15.06-8.34,10.79-16.53-5.81-25-15.46-28ZM-82.94-145.88c-.26,1.24-.9,2.28-1.93,3.11-1.05.84-2.21,1.27-3.5,1.27-.84,0-1.64-.22-2.43-.66-1.08-.62-1.92-1.54-2.53-2.75h.03c-.04-.12-.06-.25-.06-.41,0-.14.03-.27.08-.4.14-.3.37-.46.69-.46.3,0,.58.18.86.52.09.11.17.21.25.3,1.09,1.34,2.14,2.02,3.14,2.02s1.83-.36,2.53-1.07c.69-.7,1.03-1.54,1.03-2.51,0-.84-.23-1.55-.66-2.13-.34-.48-.95-.97-1.83-1.48-.92-.54-1.47-.87-1.65-1-.41-.28-.75-.57-1.03-.87-.71-.75-1.07-1.68-1.07-2.78,0-.14,0-.29.02-.45.11-1.19.6-2.19,1.46-3,.89-.82,1.94-1.23,3.14-1.23.52,0,1.02.08,1.51.25,1.02.35,1.81.96,2.37,1.83.09.23.14.41.14.52,0,.14-.04.28-.12.42-.17.29-.42.43-.74.43-.28,0-.48-.07-.6-.22-.8-.96-1.65-1.45-2.57-1.45-.72,0-1.36.26-1.91.79-.62.59-.93,1.3-.93,2.14,0,.52.16.99.48,1.41.29.38.86.82,1.7,1.32.92.55,1.61,1,2.06,1.37,1.45,1.17,2.18,2.55,2.18,4.12,0,.35-.04.7-.11,1.05ZM-33.99-142.33c-.71.5-1.46.75-2.26.75-.98,0-1.71-.5-2.18-1.49-.11.13-.23.27-.38.4-.77.73-1.56,1.09-2.36,1.09-.5,0-.93-.13-1.3-.39-.5-.36-.82-.97-1-1.75-.01.05-.01.1-.03.15-.21.51-.84.99-1.9,1.44-.98.42-1.84.63-2.58.63-.28,0-.54-.02-.79-.07-.6-.12-1.07-.42-1.42-.86-.7.51-1.46.76-2.29.76h0c-1.88-.07-3.28-1.22-4.18-3.44-.29-.71-.5-1.51-.67-2.37-1.35,5.82-6.53,10.17-12.73,10.17-7.23,0-13.09-5.9-13.09-13.17s5.86-13.17,13.09-13.17c6.1,0,11.21,4.21,12.66,9.89.16-.88.37-1.72.66-2.51.81-2.22,1.96-3.33,3.45-3.33.08,0,.16,0,.25,0,1.35.09,2.03.87,2.03,2.36,0,1.62-.7,3.41-2.09,5.39-.88,1.26-1.81,2.28-2.78,3.06.27,1.48.56,2.6.88,3.34.59,1.38,1.48,2.06,2.65,2.06.08,0,.16,0,.25-.02.26-.05.62-.23,1.08-.56.06-.04.11-.07.17-.1-.06-.36-.1-.75-.1-1.19h-.02s0,0,0,.01h0s0-.01,0-.01c0-.27.02-.54.05-.83.16-1.34.59-2.52,1.27-3.56.83-1.27,1.82-1.91,2.99-1.91.31,0,.61.04.9.12,1.03.3,1.55,1.02,1.55,2.18,0,.09,0,.18-.01.27-.08,1.05-.55,1.93-1.41,2.64-.84.7-1.82,1.05-2.94,1.05-.21,0-.42-.02-.62-.06-.02.12-.02.28-.02.49,0,.45.08.8.23,1.05.21.32.64.51,1.3.56.29,0,.57-.03.86-.09.49-.12,1.07-.39,1.75-.83.44-.29.75-.43.93-.43.1,0,.21.03.32.09.1.06.17.14.24.23-.04-.32-.07-.66-.07-1.04v-.02h.01c0-.27.02-.55.05-.84.16-1.34.59-2.54,1.27-3.57.83-1.27,1.82-1.9,2.99-1.9.5,0,.94.1,1.31.29.16-.19.37-.29.64-.29.16,0,.25.01.29.04.34.11.5.44.5,1,0,.23-.04.71-.12,1.46-.24,2.22-.36,3.6-.36,4.14,0,.36.07.7.22,1.01.22.47.51.7.87.7.07,0,.14,0,.22-.02.23-.05.57-.23,1.01-.54.43-.31.77-.47,1.03-.47.1,0,.21.04.32.11.23.16.34.36.34.62-.02.41-.33.83-.93,1.27Z"/>
  </g>
  <path class="st0" d="M-77.35-33.02c1.52,0,2.75-1.04,2.75-2.32s-1.23-2.32-2.75-2.32-2.75,1.04-2.75,2.32,1.23,2.32,2.75,2.32Z"/>
  <path class="st1" d="M-79.79-31.33c.93,0,1.68-.59,1.68-1.33s-.75-1.33-1.68-1.33-1.68.59-1.68,1.33.75,1.33,1.68,1.33Z"/>
  <g>
    <path class="st10" d="M20.25,4.16c-4.79,1.45-10.29,7.69-11.41,12.81-.48,2.21-1.87,5.18-3.29,6.94-1.34,1.64-5.09,5.66-3.79,11.67,1.46,12.03,16.41,15.18,25.56,14.63,3.79-.23,7.57.25,11.15,1.5,4.36,1.53,10.45,2.34,16.69,1.41.6-.09,1.19-.22,1.77-.39,6.21-1.81,13.09-5.32,15.06-8.34,10.79-16.53-5.81-25-15.46-28-2.34-.73-4.53-1.92-6.28-3.63C43.88,6.56,33.92-.93,20.25,4.16Z"/>
    <path class="st7" d="M49.92,38.34c-1.88-.08-3.28-1.23-4.18-3.45-.67-1.67-1.01-3.72-1.01-6.14,0-.12,0-.29.02-.48.11-1.65.41-3.16.91-4.54.81-2.22,1.96-3.33,3.45-3.33.08,0,.16,0,.25.01,1.35.09,2.03.87,2.03,2.36,0,1.62-.7,3.41-2.09,5.39-.88,1.26-1.81,2.28-2.78,3.06.27,1.48.56,2.6.88,3.34.59,1.38,1.48,2.06,2.65,2.06.08,0,.16,0,.25-.02.26-.05.62-.23,1.08-.56.45-.3.79-.46,1.04-.46.11,0,.21.04.32.11.23.16.34.37.34.63-.02.41-.3.82-.87,1.25-.7.51-1.46.76-2.29.76h0ZM49.13,22.18c-.46,0-.87.21-1.22.6-.89,1.01-1.38,3.11-1.46,6.32.47-.48.94-1.04,1.41-1.69,1.3-1.77,1.95-3.27,1.95-4.49,0-.06-.02-.14-.05-.22-.12-.34-.33-.52-.62-.52h-.01ZM51.43,34.76c0-.27.02-.55.05-.84.16-1.34.59-2.52,1.27-3.56.83-1.27,1.82-1.91,2.99-1.91.31,0,.61.04.9.12,1.03.3,1.55,1.02,1.55,2.18,0,.09,0,.18,0,.27-.08,1.05-.55,1.93-1.41,2.64-.84.7-1.82,1.05-2.94,1.05-.21,0-.42-.02-.62-.06-.02.12-.02.28-.02.49,0,.45.08.8.23,1.05.21.32.64.51,1.3.56.29,0,.57-.03.86-.09.49-.12,1.07-.39,1.75-.83.44-.29.75-.43.93-.43.1,0,.21.03.32.09.25.15.38.36.38.64,0,.09-.02.2-.06.3-.21.51-.84.99-1.9,1.44-.98.42-1.84.63-2.58.63-.28,0-.54-.02-.79-.07-1.45-.3-2.18-1.52-2.18-3.68h-.02ZM55.2,30.28c-.71.48-1.27,1.38-1.68,2.72.2.05.38.07.56.07.65,0,1.21-.2,1.7-.6.54-.44.81-.96.81-1.56s-.19-.91-.57-.91c-.27,0-.55.1-.82.28ZM58.76,34.66c0-.27.02-.55.05-.84.16-1.34.59-2.54,1.27-3.57.83-1.27,1.82-1.9,2.99-1.9.5,0,.94.1,1.31.29.16-.19.37-.29.64-.29.16,0,.25.01.29.04.34.11.5.44.5,1,0,.23-.04.71-.12,1.46-.24,2.22-.36,3.6-.36,4.14,0,.36.07.7.22,1.01.22.47.51.7.87.7.07,0,.14,0,.22-.02.23-.05.57-.23,1.01-.54.43-.31.77-.47,1.03-.47.1,0,.21.04.32.11.23.16.34.36.34.62-.02.41-.33.83-.93,1.27-.71.5-1.46.75-2.26.75-.98,0-1.71-.5-2.18-1.49-.11.13-.23.27-.38.4-.77.73-1.56,1.09-2.36,1.09-.5,0-.93-.13-1.3-.39-.79-.58-1.18-1.7-1.18-3.35v-.02h.01ZM63.91,30.81s.03-.27.08-.8c-.17-.09-.35-.13-.54-.13-.14,0-.29.02-.43.06-.73.2-1.34.88-1.84,2.02-.45,1.02-.67,2.05-.67,3.08v.12c.02.95.27,1.43.73,1.43.24,0,.54-.14.89-.4.36-.26.62-.5.79-.73.1-.15.24-.58.41-1.3.31-1.34.51-2.45.59-3.35h-.01Z"/>
    <path class="st7" d="M9.37,35.15c-.04-.12-.06-.26-.06-.42,0-.14.03-.27.08-.4.14-.3.37-.46.69-.46.3,0,.58.18.86.52.09.11.17.21.25.3,1.09,1.34,2.14,2.02,3.14,2.02s1.83-.36,2.53-1.07c.69-.7,1.03-1.54,1.03-2.51,0-.84-.23-1.55-.66-2.13-.34-.48-.95-.97-1.83-1.48-.92-.54-1.47-.87-1.65-1-.41-.28-.75-.57-1.03-.87-.71-.75-1.07-1.68-1.07-2.78,0-.14,0-.29.02-.45.11-1.19.6-2.19,1.46-3,.89-.82,1.94-1.23,3.14-1.23.52,0,1.02.08,1.51.25,1.02.35,1.81.96,2.37,1.83.09.23.14.41.14.52,0,.14-.04.28-.12.42-.17.29-.42.43-.74.43-.28,0-.48-.07-.6-.22-.8-.96-1.65-1.45-2.57-1.45-.72,0-1.36.26-1.91.79-.62.59-.93,1.3-.93,2.14,0,.52.16.99.48,1.41.29.38.86.82,1.7,1.32.92.55,1.61,1,2.06,1.37,1.45,1.17,2.18,2.55,2.18,4.12,0,.35-.04.7-.11,1.05-.26,1.24-.9,2.28-1.93,3.11-1.05.84-2.21,1.27-3.5,1.27-.84,0-1.64-.22-2.43-.66-1.08-.62-1.92-1.54-2.53-2.75h.03Z"/>
    <path class="st7" d="M32.34,42.69c7.23,0,13.09-5.9,13.09-13.17s-5.86-13.17-13.09-13.17-13.09,5.9-13.09,13.17,5.86,13.17,13.09,13.17Z"/>
  </g>
  <path class="st11" d="M-84.28-55.97c-4.79,1.45-10.29,7.69-11.41,12.81-.48,2.21-1.87,5.18-3.29,6.94-1.34,1.64-5.09,5.66-3.79,11.67,1.46,12.03,16.41,15.18,25.56,14.63,3.79-.23,7.57.25,11.15,1.5,4.36,1.53,10.45,2.34,16.69,1.41.6-.09,1.19-.22,1.77-.39,6.21-1.81,13.09-5.32,15.06-8.34,10.79-16.53-5.81-25-15.46-28-2.34-.73-4.53-1.92-6.28-3.63-6.37-6.2-16.33-13.69-30-8.6Z"/>
  <path class="st5" d="M-54.61-21.79c-1.88-.08-3.28-1.23-4.18-3.45-.67-1.67-1.01-3.72-1.01-6.14,0-.12,0-.29.02-.48.11-1.65.41-3.16.91-4.54.81-2.22,1.96-3.33,3.45-3.33.08,0,.16,0,.25.01,1.35.09,2.03.87,2.03,2.36,0,1.62-.7,3.41-2.09,5.39-.88,1.26-1.81,2.28-2.78,3.06.27,1.48.56,2.6.88,3.34.59,1.38,1.48,2.06,2.65,2.06.08,0,.16,0,.25-.02.26-.05.62-.23,1.08-.56.45-.3.79-.46,1.04-.46.11,0,.21.04.32.11.23.16.34.37.34.63-.02.41-.3.82-.87,1.25-.7.51-1.46.76-2.29.76h0ZM-55.4-37.95c-.46,0-.87.21-1.22.6-.89,1.01-1.38,3.11-1.46,6.32.47-.48.94-1.04,1.41-1.69,1.3-1.77,1.95-3.27,1.95-4.49,0-.06-.02-.14-.05-.22-.12-.34-.33-.52-.62-.52h-.01ZM-53.1-25.37c0-.27.02-.55.05-.84.16-1.34.59-2.52,1.27-3.56.83-1.27,1.82-1.91,2.99-1.91.31,0,.61.04.9.12,1.03.3,1.55,1.02,1.55,2.18,0,.09,0,.18,0,.27-.08,1.05-.55,1.93-1.41,2.64-.84.7-1.82,1.05-2.94,1.05-.21,0-.42-.02-.62-.06-.02.12-.02.28-.02.49,0,.45.08.8.23,1.05.21.32.64.51,1.3.56.29,0,.57-.03.86-.09.49-.12,1.07-.39,1.75-.83.44-.29.75-.43.93-.43.1,0,.21.03.32.09.25.15.38.36.38.64,0,.09-.02.2-.06.3-.21.51-.84.99-1.9,1.44-.98.42-1.84.63-2.58.63-.28,0-.54-.02-.79-.07-1.45-.3-2.18-1.52-2.18-3.68h-.02ZM-49.33-29.85c-.71.48-1.27,1.38-1.68,2.72.2.05.38.07.56.07.65,0,1.21-.2,1.7-.6.54-.44.81-.96.81-1.56s-.19-.91-.57-.91c-.27,0-.55.1-.82.28ZM-45.77-25.47c0-.27.02-.55.05-.84.16-1.34.59-2.54,1.27-3.57.83-1.27,1.82-1.9,2.99-1.9.5,0,.94.1,1.31.29.16-.19.37-.29.64-.29.16,0,.25.01.29.04.34.11.5.44.5,1,0,.23-.04.71-.12,1.46-.24,2.22-.36,3.6-.36,4.14,0,.36.07.7.22,1.01.22.47.51.7.87.7.07,0,.14,0,.22-.02.23-.05.57-.23,1.01-.54.43-.31.77-.47,1.03-.47.1,0,.21.04.32.11.23.16.34.36.34.62-.02.41-.33.83-.93,1.27-.71.5-1.46.75-2.26.75-.98,0-1.71-.5-2.18-1.49-.11.13-.23.27-.38.4-.77.73-1.56,1.09-2.36,1.09-.5,0-.93-.13-1.3-.39-.79-.58-1.18-1.7-1.18-3.35v-.02h.01ZM-40.62-29.32s.03-.27.08-.8c-.17-.09-.35-.13-.54-.13-.14,0-.29.02-.43.06-.73.2-1.34.88-1.84,2.02-.45,1.02-.67,2.05-.67,3.08v.12c.02.95.27,1.43.73,1.43.24,0,.54-.14.89-.4.36-.26.62-.5.79-.73.1-.15.24-.58.41-1.3.31-1.34.51-2.45.59-3.35h-.01Z"/>
  <path class="st5" d="M-95.43-25.03c-.04-.12-.06-.26-.06-.42,0-.14.03-.27.08-.4.14-.3.37-.46.69-.46.3,0,.58.18.86.52.09.11.17.21.25.3,1.09,1.34,2.14,2.02,3.14,2.02s1.83-.36,2.53-1.07c.69-.7,1.03-1.54,1.03-2.51,0-.84-.23-1.55-.66-2.13-.34-.48-.95-.97-1.83-1.48-.92-.54-1.47-.87-1.65-1-.41-.28-.75-.57-1.03-.87-.71-.75-1.07-1.68-1.07-2.78,0-.14,0-.29.02-.45.11-1.19.6-2.19,1.46-3,.89-.82,1.94-1.23,3.14-1.23.52,0,1.02.08,1.51.25,1.02.35,1.81.96,2.37,1.83.09.23.14.41.14.52,0,.14-.04.28-.12.42-.17.29-.42.43-.74.43-.28,0-.48-.07-.6-.22-.8-.96-1.65-1.45-2.57-1.45-.72,0-1.36.26-1.91.79-.62.59-.93,1.3-.93,2.14,0,.52.16.99.48,1.41.29.38.86.82,1.7,1.32.92.55,1.61,1,2.06,1.37,1.45,1.17,2.18,2.55,2.18,4.12,0,.35-.04.7-.11,1.05-.26,1.24-.9,2.28-1.93,3.11-1.05.84-2.21,1.27-3.5,1.27-.84,0-1.64-.22-2.43-.66-1.08-.62-1.92-1.54-2.53-2.75h.03Z"/>
  <path class="st5" d="M-72.28-17.34c6.75,0,12.23-5.51,12.23-12.3s-5.47-12.3-12.23-12.3-12.23,5.51-12.23,12.3,5.47,12.3,12.23,12.3Z"/>
  <path class="st0" d="M-78.94-88.61c1.52,0,2.75-1.04,2.75-2.32s-1.23-2.32-2.75-2.32-2.75,1.04-2.75,2.32,1.23,2.32,2.75,2.32Z"/>
  <path class="st1" d="M-81.38-86.92c.93,0,1.68-.59,1.68-1.33s-.75-1.33-1.68-1.33-1.68.59-1.68,1.33.75,1.33,1.68,1.33Z"/>
  <path class="st9" d="M-85.87-111.56c-4.79,1.45-10.29,7.69-11.41,12.81-.48,2.21-1.87,5.18-3.29,6.94-1.34,1.64-5.09,5.66-3.79,11.67,1.46,12.03,16.41,15.18,25.56,14.63,3.79-.23,7.57.25,11.15,1.5,4.36,1.53,10.45,2.34,16.69,1.41.6-.09,1.19-.22,1.77-.39,6.21-1.81,13.09-5.32,15.06-8.34,10.79-16.53-5.81-25-15.46-28-2.34-.73-4.53-1.92-6.28-3.63-6.37-6.2-16.33-13.69-30-8.6Z"/>
  <path class="st5" d="M-60.19-77.33c-1.88-.08-3.28-1.23-4.18-3.45-.67-1.67-1.01-3.72-1.01-6.14,0-.12,0-.29.02-.48.11-1.65.41-3.16.91-4.54.81-2.22,1.96-3.33,3.45-3.33.08,0,.16,0,.25.01,1.35.09,2.03.87,2.03,2.36,0,1.62-.7,3.41-2.09,5.39-.88,1.26-1.81,2.28-2.78,3.06.27,1.48.56,2.6.88,3.34.59,1.38,1.48,2.06,2.65,2.06.08,0,.16,0,.25-.02.26-.05.62-.23,1.08-.56.45-.3.79-.46,1.04-.46.11,0,.21.04.32.11.23.16.34.37.34.63-.02.41-.3.82-.87,1.25-.7.51-1.46.76-2.29.76h0ZM-60.98-93.49c-.46,0-.87.21-1.22.6-.89,1.01-1.38,3.11-1.46,6.32.47-.48.94-1.04,1.41-1.69,1.3-1.77,1.95-3.27,1.95-4.49,0-.06-.02-.14-.05-.22-.12-.34-.33-.52-.62-.52h-.01ZM-58.68-80.91c0-.27.02-.55.05-.84.16-1.34.59-2.52,1.27-3.56.83-1.27,1.82-1.91,2.99-1.91.31,0,.61.04.9.12,1.03.3,1.55,1.02,1.55,2.18,0,.09,0,.18,0,.27-.08,1.05-.55,1.93-1.41,2.64-.84.7-1.82,1.05-2.94,1.05-.21,0-.42-.02-.62-.06-.02.12-.02.28-.02.49,0,.45.08.8.23,1.05.21.32.64.51,1.3.56.29,0,.57-.03.86-.09.49-.12,1.07-.39,1.75-.83.44-.29.75-.43.93-.43.1,0,.21.03.32.09.25.15.38.36.38.64,0,.09-.02.2-.06.3-.21.51-.84.99-1.9,1.44-.98.42-1.84.63-2.58.63-.28,0-.54-.02-.79-.07-1.45-.3-2.18-1.52-2.18-3.68h-.02ZM-54.91-85.39c-.71.48-1.27,1.38-1.68,2.72.2.05.38.07.56.07.65,0,1.21-.2,1.7-.6.54-.44.81-.96.81-1.56s-.19-.91-.57-.91c-.27,0-.55.1-.82.28ZM-51.35-81.01c0-.27.02-.55.05-.84.16-1.34.59-2.54,1.27-3.57.83-1.27,1.82-1.9,2.99-1.9.5,0,.94.1,1.31.29.16-.19.37-.29.64-.29.16,0,.25.01.29.04.34.11.5.44.5,1,0,.23-.04.71-.12,1.46-.24,2.22-.36,3.6-.36,4.14,0,.36.07.7.22,1.01.22.47.51.7.87.7.07,0,.14,0,.22-.02.23-.05.57-.23,1.01-.54.43-.31.77-.47,1.03-.47.1,0,.21.04.32.11.23.16.34.36.34.62-.02.41-.33.83-.93,1.27-.71.5-1.46.75-2.26.75-.98,0-1.71-.5-2.18-1.49-.11.13-.23.27-.38.4-.77.73-1.56,1.09-2.36,1.09-.5,0-.93-.13-1.3-.39-.79-.58-1.18-1.7-1.18-3.35v-.02h.01ZM-46.2-84.86s.03-.27.08-.8c-.17-.09-.35-.13-.54-.13-.14,0-.29.02-.43.06-.73.2-1.34.88-1.84,2.02-.45,1.02-.67,2.05-.67,3.08v.12c.02.95.27,1.43.73,1.43.24,0,.54-.14.89-.4.36-.26.62-.5.79-.73.1-.15.24-.58.41-1.3.31-1.34.51-2.45.59-3.35h-.01Z"/>
  <path class="st5" d="M-93.69-79.8c-.06-.11-.09-.25-.11-.41-.02-.14,0-.27.03-.41.1-.32.31-.5.62-.55.3-.04.6.1.92.4.1.1.2.19.29.26,1.26,1.19,2.39,1.72,3.38,1.59s1.77-.6,2.37-1.39c.59-.78.82-1.66.69-2.62-.11-.83-.43-1.51-.93-2.03-.4-.43-1.07-.84-2.01-1.23-.98-.41-1.57-.67-1.77-.78-.44-.22-.82-.47-1.14-.73-.8-.65-1.28-1.53-1.42-2.62-.02-.14-.04-.29-.04-.45-.05-1.19.31-2.25,1.05-3.17.77-.93,1.76-1.47,2.95-1.63.52-.07,1.02-.05,1.53.05,1.06.21,1.92.71,2.59,1.5.12.22.19.39.21.5.02.14,0,.28-.06.43-.13.31-.36.48-.68.52-.28.04-.49,0-.62-.14-.92-.85-1.83-1.22-2.74-1.1-.71.09-1.31.44-1.79,1.03-.54.67-.75,1.41-.64,2.24.07.52.29.96.66,1.33.34.34.96.7,1.86,1.09.98.42,1.73.78,2.22,1.09,1.59.97,2.5,2.24,2.7,3.8.05.35.05.7.03,1.06-.1,1.26-.59,2.38-1.51,3.34-.93.97-2.02,1.55-3.3,1.72-.83.11-1.65,0-2.5-.34-1.15-.47-2.11-1.28-2.87-2.39h.03s0,0,0,0Z"/>
  <path class="st5" d="M-65.44-80.48c.41,1.01.92,1.8,1.54,2.37-2.21,3.13-5.85,5.18-9.97,5.18-4.33,0-8.13-2.27-10.3-5.68.86-.79,1.41-1.74,1.64-2.86.07-.35.11-.7.11-1.05,0-1.57-.7-3.14-2.15-4.31-.31-.26-.74-.55-1.28-.9.34-1.84,1.07-3.35,2.14-4.81.36-.49.76-.95,1.18-1.38,2.22-2.23,5.28-3.61,8.66-3.61,3.66,0,6.95,1.62,9.18,4.18-.31.47-.59,1.04-.83,1.71-.5,1.38-.8,2.89-.91,4.54-.02.19-.02.36-.02.48,0,2.42.34,4.47,1.01,6.14Z"/>
</svg>