<svg width="24" height="24" viewBox="0 0 24 24" fill="none" xmlns="http://www.w3.org/2000/svg">
<path d="M2 12C2 8.7 2 7.05 3.464 6.025C4.93 5 7.286 5 12 5C16.714 5 19.071 5 20.535 6.025C21.999 7.05 22 8.7 22 12C22 15.3 22 16.95 20.535 17.975C19.072 19 16.714 19 12 19C7.286 19 4.929 19 3.464 17.975C1.999 16.95 2 15.3 2 12Z" stroke="#2F4827" stroke-width="1.5" stroke-linecap="round" stroke-linejoin="round"/>
<path d="M10.5 9.90789V14.0919C10.5003 14.1457 10.5111 14.199 10.532 14.2486C10.5528 14.2983 10.5832 14.3433 10.6215 14.3812C10.6598 14.4191 10.7051 14.4491 10.755 14.4694C10.8048 14.4898 10.8582 14.5002 10.912 14.4999C10.9931 14.5009 11.0727 14.4772 11.14 14.4319L14.315 12.3579C14.3715 12.3213 14.418 12.2713 14.4503 12.2122C14.4826 12.1532 14.4996 12.087 14.4999 12.0197C14.5002 11.9524 14.4837 11.8861 14.452 11.8268C14.4202 11.7674 14.3742 11.717 14.318 11.6799L11.143 9.56989C11.0522 9.50913 10.9412 9.48661 10.8339 9.5072C10.7266 9.52779 10.6318 9.58984 10.57 9.67989C10.524 9.74701 10.4996 9.82654 10.5 9.90789Z" stroke="#2F4827" stroke-width="1.5" stroke-linecap="round" stroke-linejoin="round"/>
</svg>
