<svg width="24" height="24" viewBox="0 0 24 24" fill="none" xmlns="http://www.w3.org/2000/svg">
<g clip-path="url(#clip0_2022_326)">
<path d="M1.1248 9.60012H22.8752V8.00012H1.1248V9.60012ZM22.4 9.12492V9.82732H24V9.12492H22.4ZM19.8176 22.4001H4.1824V24.0001H19.8176V22.4001ZM1.6 9.82732V9.12492H0V9.82732H1.6ZM4.6336 22.6785C2.63856 18.6883 1.59995 14.2885 1.6 9.82732H0C0 14.5377 1.096 19.1825 3.2032 23.3953L4.6336 22.6785ZM4.1824 22.4001C4.3744 22.4001 4.5488 22.5089 4.6336 22.6785L3.2032 23.3953C3.29501 23.5764 3.435 23.7287 3.60775 23.8354C3.78051 23.9421 3.97935 23.9991 4.1824 24.0001V22.4001ZM19.3664 22.6785C19.409 22.5954 19.4736 22.5254 19.5532 22.4764C19.6327 22.4273 19.7241 22.4009 19.8176 22.4001V24.0001C20.2336 24.0001 20.6112 23.7665 20.7968 23.3953L19.3664 22.6785ZM22.4 9.82732C22.4 14.2881 21.36 18.6881 19.3664 22.6785L20.7968 23.3953C22.9033 19.1826 24 14.5373 24 9.82732H22.4ZM22.8752 9.60012C22.7492 9.60012 22.6283 9.55005 22.5392 9.46093C22.4501 9.37182 22.4 9.25095 22.4 9.12492H24C24 8.8266 23.8815 8.5405 23.6706 8.32956C23.4596 8.11862 23.1735 8.00012 22.8752 8.00012V9.60012ZM1.1248 8.00012C0.826485 8.00012 0.540387 8.11862 0.329446 8.32956C0.118505 8.5405 0 8.8266 0 9.12492H1.6C1.6 9.25095 1.54993 9.37182 1.46082 9.46093C1.3717 9.55005 1.25083 9.60012 1.1248 9.60012V8.00012ZM6.2864 9.21132L11.0864 1.21132L9.712 0.388916L4.912 8.38892L6.2864 9.21132ZM12.9136 1.21132L17.7136 9.21132L19.0864 8.38892L14.2864 0.388916L12.9136 1.21132ZM11.2 11.2001V19.2001H12.8V11.2001H11.2ZM8 16.0001H16V14.4001H8V16.0001Z" fill="#2F4827"/>
</g>
<defs>
<clipPath id="clip0_2022_326">
<rect width="24" height="24" fill="white"/>
</clipPath>
</defs>
</svg>
