<svg width="40" height="40" viewBox="0 0 40 40" fill="none" xmlns="http://www.w3.org/2000/svg">
<g clip-path="url(#clip0_2085_380)">
<path d="M20.8333 6.66671C20.8333 3.33337 23.3333 0.833374 26.6667 0.833374M20 10.9667L19.4833 10.64C17.0817 9.12004 14.04 8.54337 11.6217 10.04C10.405 10.7884 8.465 12.2917 7.5 13.3334V13.8217C10.9667 15.61 14.1667 19.1984 14.1667 23.3334C14.1667 27.4684 10.9667 31.0567 7.5 32.8434V33.3334C8.46667 34.3734 10.405 35.875 11.6217 36.6284C14.0383 38.1234 17.0817 37.5467 19.4833 36.0284L20 35.7L20.5167 36.0267C22.9183 37.5467 25.96 38.1234 28.3783 36.6267C29.595 35.8767 31.535 34.3734 32.5 33.3334V32.8434C29.0333 31.0567 25.8333 27.4684 25.8333 23.3334C25.8333 19.1984 29.0333 15.61 32.5 13.8234V13.3334C31.5333 12.2934 29.595 10.7917 28.3783 10.0384C25.9617 8.54337 22.9183 9.12004 20.5167 10.6384L20 10.9667Z" stroke="#C54E2C" stroke-width="2" stroke-linecap="round"/>
</g>
<defs>
<clipPath id="clip0_2085_380">
<rect width="40" height="40" fill="white"/>
</clipPath>
</defs>
</svg>
