<svg width="24" height="24" viewBox="0 0 24 24" fill="none" xmlns="http://www.w3.org/2000/svg">
<path d="M17 12H3H17Z" fill="#FFFDF6"/>
<path d="M17 12H3" stroke="#FFFDF6" stroke-linecap="round" stroke-linejoin="round"/>
<path d="M21.643 11.786L18.212 9.72698C18.0906 9.65404 17.952 9.61464 17.8104 9.6128C17.6688 9.61096 17.5292 9.64675 17.4059 9.71652C17.2827 9.78628 17.1802 9.88752 17.1088 10.0099C17.0375 10.1322 17 10.2713 17 10.413V13.587C17 13.7286 17.0375 13.8677 17.1088 13.9901C17.1802 14.1124 17.2827 14.2137 17.4059 14.2834C17.5292 14.3532 17.6688 14.389 17.8104 14.3872C17.952 14.3853 18.0906 14.3459 18.212 14.273L21.642 12.214C21.6788 12.1917 21.7093 12.1603 21.7305 12.1228C21.7516 12.0853 21.7628 12.043 21.7628 12C21.7628 11.9569 21.7516 11.9146 21.7305 11.8771C21.7093 11.8396 21.6798 11.8082 21.643 11.786Z" fill="#FFFDF6"/>
</svg>
