<svg width="24" height="24" viewBox="0 0 24 24" fill="none" xmlns="http://www.w3.org/2000/svg">
<path d="M17 12H3" stroke="#EFBF43" stroke-linecap="round" stroke-linejoin="round"/>
<path d="M21.643 11.786L18.212 9.72704C18.0906 9.6541 17.952 9.6147 17.8104 9.61286C17.6688 9.61102 17.5292 9.64681 17.4059 9.71658C17.2827 9.78634 17.1802 9.88758 17.1088 10.0099C17.0375 10.1323 17 10.2714 17 10.413V13.587C17 13.7287 17.0375 13.8678 17.1088 13.9901C17.1802 14.1125 17.2827 14.2137 17.4059 14.2835C17.5292 14.3533 17.6688 14.3891 17.8104 14.3872C17.952 14.3854 18.0906 14.346 18.212 14.273L21.642 12.214C21.6788 12.1918 21.7093 12.1604 21.7305 12.1229C21.7516 12.0854 21.7628 12.0431 21.7628 12C21.7628 11.957 21.7516 11.9147 21.7305 11.8772C21.7093 11.8397 21.6798 11.8083 21.643 11.786Z" fill="#EFBF43"/>
</svg>
