<svg width="24" height="24" viewBox="0 0 24 24" fill="none" xmlns="http://www.w3.org/2000/svg">
<path d="M10.478 21.125C11.4834 21.2921 12.5094 21.2928 13.515 21.1271M10.478 21.125C8.31845 20.7646 6.35578 19.6497 4.94091 17.9789C3.52604 16.308 2.74971 14.1895 2.75 12C2.75036 10.2354 3.25548 8.5077 4.20575 7.02077C5.15602 5.53385 6.51179 4.34977 8.11307 3.60826C9.71435 2.86674 11.4943 2.59873 13.243 2.83585C14.9916 3.07297 16.6359 3.80533 17.9819 4.94651C19.3279 6.08768 20.3193 7.59006 20.8393 9.27635C21.3593 10.9626 21.3861 12.7625 20.9165 14.4635C20.4469 16.1645 19.5005 17.6957 18.1891 18.8764C16.8776 20.0571 15.2558 20.838 13.515 21.1271M10.478 21.125L10.477 16.12H8.58C8.42087 16.12 8.26826 16.0568 8.15574 15.9443C8.04321 15.8318 7.98 15.6792 7.98 15.52V13.682C7.98 13.5229 8.04321 13.3703 8.15574 13.2578C8.26826 13.1453 8.42087 13.082 8.58 13.082H10.477V9.95005C10.477 9.1544 10.7931 8.39134 11.3557 7.82873C11.9183 7.26612 12.6814 6.95005 13.477 6.95005H15.287C15.5522 6.95005 15.8066 7.05541 15.9941 7.24294C16.1816 7.43048 16.287 7.68483 16.287 7.95005V8.99005C16.287 9.25527 16.1816 9.50962 15.9941 9.69716C15.8066 9.88469 15.5522 9.99005 15.287 9.99005H14.515C14.2498 9.99005 13.9954 10.0954 13.8079 10.2829C13.6204 10.4705 13.515 10.7248 13.515 10.99V13.082H15.812C15.8991 13.082 15.9851 13.101 16.0642 13.1376C16.1432 13.1742 16.2133 13.2275 16.2696 13.294C16.326 13.3604 16.3672 13.4383 16.3904 13.5222C16.4136 13.6061 16.4182 13.6941 16.404 13.78L16.154 15.284C16.1152 15.5176 15.9948 15.7297 15.8142 15.8828C15.6337 16.0359 15.4047 16.1199 15.168 16.12H13.515V21.1271" stroke="#2F4827" stroke-width="1.5" stroke-linecap="round"/>
</svg>
