<svg width="40" height="40" viewBox="0 0 40 40" fill="none" xmlns="http://www.w3.org/2000/svg">
<path d="M34.9997 20H36.6663M30.833 9.16671L32.4997 7.50004M19.9997 5.00004V3.33337M9.16634 9.16671L7.49967 7.50004M4.99967 20H3.33301M16.6663 36.6667H23.333M28.333 20C28.3326 18.4977 27.926 17.0235 27.1564 15.7333C26.3868 14.4431 25.2827 13.3849 23.9609 12.6708C22.6392 11.9567 21.149 11.6131 19.648 11.6765C18.1471 11.7399 16.6911 12.2079 15.4343 13.0309C14.1775 13.8539 13.1666 15.0014 12.5085 16.3519C11.8504 17.7024 11.5696 19.2057 11.6958 20.7027C11.8221 22.1997 12.3506 23.6347 13.2256 24.8559C14.1006 26.0771 15.2894 27.0391 16.6663 27.64V31.6667H23.333V27.64C24.8195 26.9913 26.0843 25.9229 26.9725 24.5658C27.8606 23.2087 28.3335 21.6219 28.333 20Z" stroke="#EFBF43" stroke-width="2" stroke-linecap="round" stroke-linejoin="round"/>
</svg>
