<svg width="36" height="36" viewBox="0 0 36 36" fill="none" xmlns="http://www.w3.org/2000/svg">
<path d="M18.75 21C12.54 21 7.5 23.355 7.5 26.25V30H30V26.25C30 23.355 24.96 21 18.75 21ZM9 26.25C9 24.18 13.365 22.5 18.75 22.5C24.135 22.5 28.5 24.18 28.5 26.25V28.5H9V26.25ZM18.75 7.5C17.3576 7.5 16.0223 8.05312 15.0377 9.03769C14.0531 10.0223 13.5 11.3576 13.5 12.75C13.5 14.1424 14.0531 15.4777 15.0377 16.4623C16.0223 17.4469 17.3576 18 18.75 18C20.1424 18 21.4777 17.4469 22.4623 16.4623C23.4469 15.4777 24 14.1424 24 12.75C24 11.3576 23.4469 10.0223 22.4623 9.03769C21.4777 8.05312 20.1424 7.5 18.75 7.5ZM18.75 9C19.7446 9 20.6984 9.39509 21.4017 10.0983C22.1049 10.8016 22.5 11.7554 22.5 12.75C22.5 13.7446 22.1049 14.6984 21.4017 15.4017C20.6984 16.1049 19.7446 16.5 18.75 16.5C17.7554 16.5 16.8016 16.1049 16.0983 15.4017C15.3951 14.6984 15 13.7446 15 12.75C15 11.7554 15.3951 10.8016 16.0983 10.0983C16.8016 9.39509 17.7554 9 18.75 9Z" fill="#2F4827"/>
</svg>
