<svg width="32" height="32" viewBox="0 0 32 32" fill="none" xmlns="http://www.w3.org/2000/svg">
<path d="M21.2858 5.66667C22.3924 5.66667 23.4458 5.96 24.3391 6.54667C25.8591 7.53333 26.7924 9.04 27.0058 10.7867C27.082 11.6327 26.9724 12.4852 26.6845 13.2844C26.3966 14.0837 25.9374 14.8103 25.3391 15.4133C24.4058 16.3333 23.2191 16.92 21.9124 17.0533C19.3658 17.32 17.1258 18.3333 15.4591 20.0267C15.2575 20.223 14.9872 20.3328 14.7058 20.3328C14.4244 20.3328 14.1541 20.223 13.9524 20.0267L12.6324 18.7067C12.539 18.6143 12.4649 18.5043 12.4145 18.3829C12.3641 18.2616 12.3385 18.1314 12.3391 18C12.3391 17.6667 12.4858 17.3733 12.7658 17.0933C14.3791 15.4667 15.3658 13.3067 15.6058 10.8267C15.7791 9.05333 16.7258 7.53333 18.2724 6.53333C19.1524 5.96 20.1924 5.66667 21.2858 5.66667ZM21.2858 3C19.7258 3 18.1658 3.42667 16.8191 4.29333C14.4724 5.8 13.1791 8.14667 12.9524 10.5733C12.7791 12.3333 12.1124 13.9733 10.8858 15.2L10.8458 15.24C9.29911 16.7867 9.29911 19.1467 10.7524 20.5867L12.0724 21.9067C12.8058 22.64 13.7524 23 14.6991 23C15.6458 23 16.6058 22.64 17.3391 21.9067C18.6324 20.6133 20.3391 19.9067 22.1924 19.7067C24.0191 19.5067 25.8058 18.7067 27.2191 17.3067C28.1058 16.4212 28.7821 15.3477 29.198 14.1656C29.6139 12.9835 29.7587 11.723 29.6217 10.4773C29.4847 9.23172 29.0694 8.03283 28.4066 6.96934C27.7438 5.90585 26.8504 5.00497 25.7924 4.33333C24.4458 3.44 22.8724 3 21.2858 3ZM8.68577 26.8133C9.04577 27.56 8.92577 28.4667 8.29911 29.08C8.0277 29.3555 7.68178 29.5458 7.30378 29.6275C6.92579 29.7093 6.53215 29.6789 6.17116 29.5402C5.81016 29.4015 5.49751 29.1604 5.27155 28.8465C5.04559 28.5327 4.91615 28.1597 4.89911 27.7733C4.51275 27.7563 4.13976 27.6268 3.82591 27.4009C3.51205 27.1749 3.27097 26.8623 3.13223 26.5013C2.9935 26.1403 2.96314 25.7467 3.04489 25.3687C3.12664 24.9907 3.31694 24.6447 3.59244 24.3733C4.20577 23.76 5.12577 23.6267 5.85911 23.9867L9.16577 20.7467C9.35244 21 9.56577 21.2933 9.80577 21.5333L11.1258 22.8533C11.4058 23.12 11.6724 23.3467 12.0191 23.5467L8.68577 26.8133Z" fill="#FFFDF6"/>
</svg>
