<svg width="24" height="24" viewBox="0 0 24 24" fill="none" xmlns="http://www.w3.org/2000/svg">
<g clip-path="url(#clip0_2165_368)">
<path d="M23 23.0002L16.3333 16.3336M3 10.778C3 11.7994 3.20118 12.8108 3.59205 13.7544C3.98292 14.6981 4.55582 15.5555 5.27806 16.2777C6.00029 17 6.85771 17.5729 7.80135 17.9638C8.74499 18.3546 9.75639 18.5558 10.7778 18.5558C11.7992 18.5558 12.8106 18.3546 13.7542 17.9638C14.6978 17.5729 15.5553 17 16.2775 16.2777C16.9997 15.5555 17.5726 14.6981 17.9635 13.7544C18.3544 12.8108 18.5556 11.7994 18.5556 10.778C18.5556 9.75663 18.3544 8.74524 17.9635 7.8016C17.5726 6.85795 16.9997 6.00054 16.2775 5.2783C15.5553 4.55607 14.6978 3.98316 13.7542 3.59229C12.8106 3.20142 11.7992 3.00024 10.7778 3.00024C9.75639 3.00024 8.74499 3.20142 7.80135 3.59229C6.85771 3.98316 6.00029 4.55607 5.27806 5.2783C4.55582 6.00054 3.98292 6.85795 3.59205 7.8016C3.20118 8.74524 3 9.75663 3 10.778Z" stroke="#2F4827" stroke-width="1.5" stroke-linecap="round" stroke-linejoin="round"/>
</g>
<defs>
<clipPath id="clip0_2165_368">
<rect width="24" height="24" fill="white"/>
</clipPath>
</defs>
</svg>
