<?xml version="1.0" encoding="UTF-8"?>
<svg id="Layer_1" xmlns="http://www.w3.org/2000/svg" version="1.1" xmlns:xlink="http://www.w3.org/1999/xlink" viewBox="0 0 77 56">
  <!-- Generator: Adobe Illustrator 29.8.3, SVG Export Plug-In . SVG Version: 2.1.1 Build 3)  -->
  <defs>
    <style>
      .st0 {
        opacity: .85;
      }

      .st0, .st1 {
        fill: #fffdf6;
      }

      .st0, .st1, .st2 {
        isolation: isolate;
      }

      .st1 {
        opacity: .75;
      }

      .st3 {
        fill: url(#radial-gradient);
      }

      .st2 {
        fill: #2f4827;
        opacity: .08;
      }

      .st4 {
        fill: url(#linear-gradient);
      }

      .st5 {
        fill: #c54e2c;
      }
    </style>
    <linearGradient id="linear-gradient" x1="38.5" y1="1024.79" x2="38.5" y2="95621.1" gradientTransform="translate(0 -1022)" gradientUnits="userSpaceOnUse">
      <stop offset="0" stop-color="#fff7ec"/>
      <stop offset="1" stop-color="#f4e7c7"/>
    </linearGradient>
    <radialGradient id="radial-gradient" cx="-1840.99" cy=".55" fx="-1840.99" fy=".55" r="1" gradientTransform="translate(3373728.22 -218.58) scale(1832.05 1844.43)" gradientUnits="userSpaceOnUse">
      <stop offset="0" stop-color="#fff27a"/>
      <stop offset=".7" stop-color="#efbe42"/>
      <stop offset="1" stop-color="#e2a600"/>
    </radialGradient>
  </defs>
  <path class="st4" d="M20.25,4.16c-4.79,1.45-10.29,7.69-11.41,12.81-.48,2.21-1.87,5.18-3.29,6.94-1.34,1.64-5.09,5.66-3.79,11.67,1.46,12.03,16.41,15.18,25.56,14.63,3.79-.23,7.57.25,11.15,1.5,4.36,1.53,10.45,2.34,16.69,1.41.6-.09,1.19-.22,1.77-.39,6.21-1.81,13.09-5.32,15.06-8.34,10.79-16.53-5.81-25-15.46-28-2.34-.73-4.53-1.92-6.28-3.63C43.88,6.56,33.92-.93,20.25,4.16Z"/>
  <path class="st5" d="M49.92,38.34c-1.88-.08-3.28-1.23-4.18-3.45-.67-1.67-1.01-3.72-1.01-6.14,0-.12,0-.29.02-.48.11-1.65.41-3.16.91-4.54.81-2.22,1.96-3.33,3.45-3.33.08,0,.16,0,.25.01,1.35.09,2.03.87,2.03,2.36,0,1.62-.7,3.41-2.09,5.39-.88,1.26-1.81,2.28-2.78,3.06.27,1.48.56,2.6.88,3.34.59,1.38,1.48,2.06,2.65,2.06.08,0,.16,0,.25-.02.26-.05.62-.23,1.08-.56.45-.3.79-.46,1.04-.46.11,0,.21.04.32.11.23.16.34.37.34.63-.02.41-.3.82-.87,1.25-.7.51-1.46.76-2.29.76h0ZM49.13,22.18c-.46,0-.87.21-1.22.6-.89,1.01-1.38,3.11-1.46,6.32.47-.48.94-1.04,1.41-1.69,1.3-1.77,1.95-3.27,1.95-4.49,0-.06-.02-.14-.05-.22-.12-.34-.33-.52-.62-.52h0ZM51.43,34.76c0-.27.02-.55.05-.84.16-1.34.59-2.52,1.27-3.56.83-1.27,1.82-1.91,2.99-1.91.31,0,.61.04.9.12,1.03.3,1.55,1.02,1.55,2.18,0,.09,0,.18-.01.27-.08,1.05-.55,1.93-1.41,2.64-.84.7-1.82,1.05-2.94,1.05-.21,0-.42-.02-.62-.06-.02.12-.02.28-.02.49,0,.45.08.8.23,1.05.21.32.64.51,1.3.56.29,0,.57-.03.86-.09.49-.12,1.07-.39,1.75-.83.44-.29.75-.43.93-.43.1,0,.21.03.32.09.25.15.38.36.38.64,0,.09-.02.2-.06.3-.21.51-.84.99-1.9,1.44-.98.42-1.84.63-2.58.63-.28,0-.54-.02-.79-.07-1.45-.3-2.18-1.52-2.18-3.68h-.02ZM55.2,30.28c-.71.48-1.27,1.38-1.68,2.72.2.05.38.07.56.07.65,0,1.21-.2,1.7-.6.54-.44.81-.96.81-1.56s-.19-.91-.57-.91c-.27,0-.55.1-.82.28ZM58.76,34.66c0-.27.02-.55.05-.84.16-1.34.59-2.54,1.27-3.57.83-1.27,1.82-1.9,2.99-1.9.5,0,.94.1,1.31.29.16-.19.37-.29.64-.29.16,0,.25.01.29.04.34.11.5.44.5,1,0,.23-.04.71-.12,1.46-.24,2.22-.36,3.6-.36,4.14,0,.36.07.7.22,1.01.22.47.51.7.87.7.07,0,.14,0,.22-.02.23-.05.57-.23,1.01-.54.43-.31.77-.47,1.03-.47.1,0,.21.04.32.11.23.16.34.36.34.62-.02.41-.33.83-.93,1.27-.71.5-1.46.75-2.26.75-.98,0-1.71-.5-2.18-1.49-.11.13-.23.27-.38.4-.77.73-1.56,1.09-2.36,1.09-.5,0-.93-.13-1.3-.39-.79-.58-1.18-1.7-1.18-3.35v-.02ZM63.91,30.81s.03-.27.08-.8c-.17-.09-.35-.13-.54-.13-.14,0-.29.02-.43.06-.73.2-1.34.88-1.84,2.02-.45,1.02-.67,2.05-.67,3.08v.12c.02.95.27,1.43.73,1.43.24,0,.54-.14.89-.4.36-.26.62-.5.79-.73.1-.15.24-.58.41-1.3.31-1.34.51-2.45.59-3.35h-.01Z"/>
  <path class="st5" d="M9.1,35.1c-.04-.12-.06-.26-.06-.42,0-.14.03-.27.08-.4.14-.3.37-.46.69-.46.3,0,.58.18.86.52.09.11.17.21.25.3,1.09,1.34,2.14,2.02,3.14,2.02s1.83-.36,2.53-1.07c.69-.7,1.03-1.54,1.03-2.51,0-.84-.23-1.55-.66-2.13-.34-.48-.95-.97-1.83-1.48-.92-.54-1.47-.87-1.65-1-.41-.28-.75-.57-1.03-.87-.71-.75-1.07-1.68-1.07-2.78,0-.14,0-.29.02-.45.11-1.19.6-2.19,1.46-3,.89-.82,1.94-1.23,3.14-1.23.52,0,1.02.08,1.51.25,1.02.35,1.81.96,2.37,1.83.09.23.14.41.14.52,0,.14-.04.28-.12.42-.17.29-.42.43-.74.43-.28,0-.48-.07-.6-.22-.8-.96-1.65-1.45-2.57-1.45-.72,0-1.36.26-1.91.79-.62.59-.93,1.3-.93,2.14,0,.52.16.99.48,1.41.29.38.86.82,1.7,1.32.92.55,1.61,1,2.06,1.37,1.45,1.17,2.18,2.55,2.18,4.12,0,.35-.04.7-.11,1.05-.26,1.24-.9,2.28-1.93,3.11-1.05.84-2.21,1.27-3.5,1.27-.84,0-1.64-.22-2.43-.66-1.08-.62-1.92-1.54-2.53-2.75h.03Z"/>
  <path class="st2" d="M34.05,44.99c7.08,0,12.83-6.24,12.83-13.93s-5.74-13.93-12.83-13.93-12.83,6.24-12.83,13.93,5.74,13.93,12.83,13.93Z"/>
  <path class="st3" d="M32.34,42.69c7.23,0,13.09-5.9,13.09-13.17s-5.86-13.17-13.09-13.17-13.09,5.9-13.09,13.17,5.86,13.17,13.09,13.17Z"/>
  <path class="st0" d="M28.55,26.09c1.52,0,2.75-1.04,2.75-2.32s-1.23-2.32-2.75-2.32-2.75,1.04-2.75,2.32,1.23,2.32,2.75,2.32Z"/>
  <path class="st1" d="M26.11,27.78c.93,0,1.68-.59,1.68-1.33s-.75-1.33-1.68-1.33-1.68.59-1.68,1.33.75,1.33,1.68,1.33Z"/>
</svg>