<svg width="22" height="20" viewBox="0 0 22 20" fill="none" xmlns="http://www.w3.org/2000/svg">
<path d="M17.75 0.75H3.75C2.336 0.75 1.629 0.75 1.19 1.162C0.751 1.574 0.75 2.238 0.75 3.565V4.255C0.75 5.292 0.75 5.811 1.01 6.241C1.27 6.671 1.743 6.939 2.692 7.473L5.605 9.113C6.241 9.471 6.56 9.65 6.788 9.848C7.262 10.259 7.554 10.743 7.686 11.338C7.75 11.622 7.75 11.956 7.75 12.623V15.293C7.75 16.202 7.75 16.657 8.002 17.011C8.254 17.366 8.702 17.541 9.596 17.891C11.475 18.625 12.414 18.992 13.082 18.574C13.75 18.156 13.75 17.202 13.75 15.292V12.622C13.75 11.956 13.75 11.622 13.814 11.337C13.9396 10.7542 14.2559 10.2298 14.713 9.847C14.94 9.65 15.259 9.471 15.895 9.112L18.808 7.472C19.756 6.939 20.231 6.672 20.49 6.242C20.75 5.812 20.75 5.292 20.75 4.254V3.564C20.75 2.238 20.75 1.574 20.31 1.162C19.872 0.75 19.165 0.75 17.75 0.75Z" stroke="#EFBF43" stroke-width="1.5"/>
</svg>
