<svg width="40" height="40" viewBox="0 0 40 40" fill="none" xmlns="http://www.w3.org/2000/svg">
<path d="M30.8714 20.1656L22.812 17.1875L19.8433 9.12188C19.6675 8.64426 19.3494 8.23207 18.932 7.94092C18.5145 7.64976 18.0178 7.49365 17.5089 7.49365C17 7.49365 16.5033 7.64976 16.0858 7.94092C15.6684 8.23207 15.3503 8.64426 15.1745 9.12188L12.187 17.1875L4.12139 20.1562C3.64378 20.3321 3.23159 20.6501 2.94043 21.0676C2.64927 21.485 2.49316 21.9817 2.49316 22.4906C2.49316 22.9996 2.64927 23.4963 2.94043 23.9137C3.23159 24.3311 3.64378 24.6492 4.12139 24.825L12.187 27.8125L15.1558 35.8781C15.3316 36.3557 15.6496 36.7679 16.0671 37.0591C16.4845 37.3502 16.9812 37.5064 17.4901 37.5064C17.9991 37.5064 18.4958 37.3502 18.9132 37.0591C19.3306 36.7679 19.6487 36.3557 19.8245 35.8781L22.812 27.8125L30.8776 24.8438C31.3553 24.6679 31.7674 24.3499 32.0586 23.9324C32.3498 23.515 32.5059 23.0183 32.5059 22.5094C32.5059 22.0004 32.3498 21.5037 32.0586 21.0863C31.7674 20.6689 31.3553 20.3508 30.8776 20.175L30.8714 20.1656ZM21.4058 25.6594C21.2361 25.7219 21.082 25.8205 20.9541 25.9484C20.8263 26.0762 20.7277 26.2303 20.6651 26.4L17.4995 34.9766L14.3401 26.4062C14.2777 26.2348 14.1785 26.0791 14.0495 25.9501C13.9204 25.821 13.7647 25.7218 13.5933 25.6594L5.02295 22.5L13.5933 19.3406C13.7647 19.2782 13.9204 19.179 14.0495 19.0499C14.1785 18.9209 14.2777 18.7652 14.3401 18.5938L17.4995 10.0234L20.6589 18.5938C20.7214 18.7634 20.82 18.9175 20.9479 19.0454C21.0758 19.1732 21.2298 19.2718 21.3995 19.3344L29.9761 22.5L21.4058 25.6594ZM22.4995 6.25C22.4995 5.91848 22.6312 5.60054 22.8656 5.36612C23.1001 5.1317 23.418 5 23.7495 5H26.2495V2.5C26.2495 2.16848 26.3812 1.85054 26.6156 1.61612C26.8501 1.3817 27.168 1.25 27.4995 1.25C27.831 1.25 28.149 1.3817 28.3834 1.61612C28.6178 1.85054 28.7495 2.16848 28.7495 2.5V5H31.2495C31.581 5 31.899 5.1317 32.1334 5.36612C32.3678 5.60054 32.4995 5.91848 32.4995 6.25C32.4995 6.58152 32.3678 6.89946 32.1334 7.13388C31.899 7.3683 31.581 7.5 31.2495 7.5H28.7495V10C28.7495 10.3315 28.6178 10.6495 28.3834 10.8839C28.149 11.1183 27.831 11.25 27.4995 11.25C27.168 11.25 26.8501 11.1183 26.6156 10.8839C26.3812 10.6495 26.2495 10.3315 26.2495 10V7.5H23.7495C23.418 7.5 23.1001 7.3683 22.8656 7.13388C22.6312 6.89946 22.4995 6.58152 22.4995 6.25ZM38.7495 13.75C38.7495 14.0815 38.6178 14.3995 38.3834 14.6339C38.149 14.8683 37.831 15 37.4995 15H36.2495V16.25C36.2495 16.5815 36.1178 16.8995 35.8834 17.1339C35.649 17.3683 35.331 17.5 34.9995 17.5C34.668 17.5 34.3501 17.3683 34.1156 17.1339C33.8812 16.8995 33.7495 16.5815 33.7495 16.25V15H32.4995C32.168 15 31.8501 14.8683 31.6156 14.6339C31.3812 14.3995 31.2495 14.0815 31.2495 13.75C31.2495 13.4185 31.3812 13.1005 31.6156 12.8661C31.8501 12.6317 32.168 12.5 32.4995 12.5H33.7495V11.25C33.7495 10.9185 33.8812 10.6005 34.1156 10.3661C34.3501 10.1317 34.668 10 34.9995 10C35.331 10 35.649 10.1317 35.8834 10.3661C36.1178 10.6005 36.2495 10.9185 36.2495 11.25V12.5H37.4995C37.831 12.5 38.149 12.6317 38.3834 12.8661C38.6178 13.1005 38.7495 13.4185 38.7495 13.75Z" fill="#94B38A"/>
</svg>
