<svg width="32" height="32" viewBox="0 0 32 32" fill="none" xmlns="http://www.w3.org/2000/svg">
<path d="M28.6201 5.28L26.7401 3.4L23.6867 6.45333V3H21.0201V5.96C20.4734 5.77333 19.9001 5.66667 19.3267 5.66667C17.9869 5.66401 16.668 5.99845 15.4913 6.63921C14.3147 7.27996 13.3181 8.20644 12.5934 9.33333L3.58006 23.3467C2.64673 24.7867 2.86006 26.72 4.07339 27.9333C4.78006 28.64 5.72673 29 6.67339 29C7.35339 29 8.04673 28.8133 8.64673 28.4267L22.6601 19.4133C24.9667 17.9333 26.3401 15.4133 26.3401 12.68C26.3401 12.0933 26.2201 11.5333 26.0467 10.9867H29.0067V8.32H25.5534L28.6067 5.26667L28.6201 5.28ZM21.2334 17.1867L20.7401 17.5067L17.3001 14.0667L15.4201 15.9467L18.4601 18.9867L16.7001 20.12L14.6467 18.0667L12.7667 19.9467L14.4067 21.5867L7.23339 26.2C6.83339 26.4533 6.31339 26.4 5.98006 26.0667C5.81957 25.9035 5.71903 25.6908 5.69482 25.4633C5.67061 25.2357 5.72415 25.0066 5.84673 24.8133L14.8601 10.8C15.8467 9.26667 17.5267 8.34667 19.3401 8.34667C20.0601 8.34667 20.7801 8.64 21.2867 9.16L22.8867 10.76C23.3934 11.2667 23.7001 11.9867 23.7001 12.7067C23.7001 14.5333 22.7801 16.2 21.2467 17.2L21.2334 17.1867Z" fill="#FFFDF6"/>
</svg>
